<?xml version="1.0" encoding="UTF-8" standalone="no"?>
<!DOCTYPE svg PUBLIC "-//W3C//DTD SVG 1.1//EN"
 "http://www.w3.org/Graphics/SVG/1.1/DTD/svg11.dtd">
<!-- Generated by graphviz version 10.0.1 (0)
 -->
<!-- Pages: 1 -->
<svg width="1849pt" height="548pt"
 viewBox="0.00 0.00 1848.88 548.00" xmlns="http://www.w3.org/2000/svg" xmlns:xlink="http://www.w3.org/1999/xlink">
<g id="graph0" class="graph" transform="scale(1 1) rotate(0) translate(4 544)">
<polygon fill="white" stroke="none" points="-4,4 -4,-544 1844.88,-544 1844.88,4 -4,4"/>
<!-- N9 -->
<g id="node1" class="node">
<title>N9</title>
<polygon fill="none" stroke="black" points="1008,-108 638,-108 638,-72 1008,-72 1008,-108"/>
<text text-anchor="middle" x="823" y="-85.33" font-family="Times,serif" font-size="14.00">github.com/DHBW&#45;SE&#45;2023/YAAC/internal/shared</text>
</g>
<!-- N11 -->
<g id="node2" class="node">
<title>N11</title>
<polygon fill="none" stroke="black" points="540.75,-36 97.25,-36 97.25,0 540.75,0 540.75,-36"/>
<text text-anchor="middle" x="319" y="-13.32" font-family="Times,serif" font-size="14.00">github.com/DHBW&#45;SE&#45;2023/YAAC/internal/backend/imgproc</text>
</g>
<!-- N9&#45;&gt;N11 -->
<g id="edge7" class="edge">
<title>N9&#45;&gt;N11</title>
<path fill="none" stroke="black" d="M697.12,-71.52C623.62,-61.31 530.82,-48.42 455.56,-37.97"/>
<polygon fill="black" stroke="black" points="456.47,-34.56 446.08,-36.65 455.51,-41.49 456.47,-34.56"/>
</g>
<!-- N5 -->
<g id="node5" class="node">
<title>N5</title>
<polygon fill="none" stroke="black" points="1330.75,-36 881.25,-36 881.25,0 1330.75,0 1330.75,-36"/>
<text text-anchor="middle" x="1106" y="-13.32" font-family="Times,serif" font-size="14.00">github.com/DHBW&#45;SE&#45;2023/YAAC/internal/backend/database</text>
</g>
<!-- N9&#45;&gt;N5 -->
<g id="edge6" class="edge">
<title>N9&#45;&gt;N5</title>
<path fill="none" stroke="black" d="M893.68,-71.52C933.42,-61.69 983.21,-49.37 1024.58,-39.14"/>
<polygon fill="black" stroke="black" points="1025.39,-42.54 1034.26,-36.75 1023.71,-35.75 1025.39,-42.54"/>
</g>
<!-- N12 -->
<g id="node8" class="node">
<title>N12</title>
<polygon fill="none" stroke="black" points="1840.88,-36 1425.12,-36 1425.12,0 1840.88,0 1840.88,-36"/>
<text text-anchor="middle" x="1633" y="-13.32" font-family="Times,serif" font-size="14.00">github.com/DHBW&#45;SE&#45;2023/YAAC/internal/backend/mail</text>
</g>
<!-- N9&#45;&gt;N12 -->
<g id="edge8" class="edge">
<title>N9&#45;&gt;N12</title>
<path fill="none" stroke="black" d="M1008.32,-72.98C1130.84,-62.4 1291.82,-48.48 1419.67,-37.44"/>
<polygon fill="black" stroke="black" points="1419.59,-40.96 1429.26,-36.61 1418.99,-33.98 1419.59,-40.96"/>
</g>
<!-- N0 -->
<g id="node3" class="node">
<title>N0</title>
<polygon fill="none" stroke="black" points="644.25,-324 221.75,-324 221.75,-288 644.25,-288 644.25,-324"/>
<text text-anchor="middle" x="433" y="-301.32" font-family="Times,serif" font-size="14.00">github.com/DHBW&#45;SE&#45;2023/YAAC/internal/frontend/main</text>
</g>
<!-- N0&#45;&gt;N9 -->
<g id="edge3" class="edge">
<title>N0&#45;&gt;N9</title>
<path fill="none" stroke="black" d="M221.38,-298.97C148.8,-292.09 80,-278.47 57,-252 46.51,-239.92 47.94,-229.19 57,-216 120.05,-124.17 421.16,-98.82 626.53,-92.38"/>
<polygon fill="black" stroke="black" points="626.37,-95.88 636.26,-92.08 626.16,-88.89 626.37,-95.88"/>
</g>
<!-- N1 -->
<g id="node9" class="node">
<title>N1</title>
<polygon fill="none" stroke="black" points="535.5,-252 66.5,-252 66.5,-216 535.5,-216 535.5,-252"/>
<text text-anchor="middle" x="301" y="-229.32" font-family="Times,serif" font-size="14.00">github.com/DHBW&#45;SE&#45;2023/YAAC/internal/frontend/main/pages</text>
</g>
<!-- N0&#45;&gt;N1 -->
<g id="edge1" class="edge">
<title>N0&#45;&gt;N1</title>
<path fill="none" stroke="black" d="M400.03,-287.52C382.97,-278.47 361.95,-267.32 343.66,-257.62"/>
<polygon fill="black" stroke="black" points="345.36,-254.56 334.89,-252.97 342.08,-260.75 345.36,-254.56"/>
</g>
<!-- N2 -->
<g id="node10" class="node">
<title>N2</title>
<polygon fill="none" stroke="black" points="794.62,-180 263.38,-180 263.38,-144 794.62,-144 794.62,-180"/>
<text text-anchor="middle" x="529" y="-157.32" font-family="Times,serif" font-size="14.00">github.com/DHBW&#45;SE&#45;2023/YAAC/internal/frontend/main/pages/settings</text>
</g>
<!-- N0&#45;&gt;N2 -->
<g id="edge2" class="edge">
<title>N0&#45;&gt;N2</title>
<path fill="none" stroke="black" d="M499.56,-287.55C516.98,-279.63 533.75,-268.26 544,-252 555.48,-233.8 550.33,-209.53 543.09,-190.93"/>
<polygon fill="black" stroke="black" points="546.34,-189.64 539.17,-181.84 539.92,-192.41 546.34,-189.64"/>
</g>
<!-- N4 -->
<g id="node4" class="node">
<title>N4</title>
<polygon fill="none" stroke="black" points="1254.62,-468 927.38,-468 927.38,-432 1254.62,-432 1254.62,-468"/>
<text text-anchor="middle" x="1091" y="-445.32" font-family="Times,serif" font-size="14.00">github.com/DHBW&#45;SE&#45;2023/YAAC/cmd/yaac</text>
</g>
<!-- N10 -->
<g id="node13" class="node">
<title>N10</title>
<polygon fill="none" stroke="black" points="1273.38,-396 908.62,-396 908.62,-360 1273.38,-360 1273.38,-396"/>
<text text-anchor="middle" x="1091" y="-373.32" font-family="Times,serif" font-size="14.00">github.com/DHBW&#45;SE&#45;2023/YAAC/internal/mvvm</text>
</g>
<!-- N4&#45;&gt;N10 -->
<g id="edge5" class="edge">
<title>N4&#45;&gt;N10</title>
<path fill="none" stroke="black" d="M1091,-431.7C1091,-424.41 1091,-415.73 1091,-407.54"/>
<polygon fill="black" stroke="black" points="1094.5,-407.62 1091,-397.62 1087.5,-407.62 1094.5,-407.62"/>
</g>
<!-- N6 -->
<g id="node6" class="node">
<title>N6</title>
<polygon fill="none" stroke="black" points="1676.38,-324 1227.62,-324 1227.62,-288 1676.38,-288 1676.38,-324"/>
<text text-anchor="middle" x="1452" y="-301.32" font-family="Times,serif" font-size="14.00">github.com/DHBW&#45;SE&#45;2023/YAAC/internal/backend/template</text>
</g>
<!-- N7 -->
<g id="node7" class="node">
<title>N7</title>
<polygon fill="none" stroke="black" points="1219,-540 963,-540 963,-504 1219,-504 1219,-540"/>
<text text-anchor="middle" x="1091" y="-517.33" font-family="Times,serif" font-size="14.00">github.com/DHBW&#45;SE&#45;2023/YAAC</text>
</g>
<!-- N7&#45;&gt;N4 -->
<g id="edge12" class="edge">
<title>N7&#45;&gt;N4</title>
<path fill="none" stroke="black" d="M1091,-503.7C1091,-496.41 1091,-487.73 1091,-479.54"/>
<polygon fill="black" stroke="black" points="1094.5,-479.62 1091,-469.62 1087.5,-479.62 1094.5,-479.62"/>
</g>
<!-- N1&#45;&gt;N9 -->
<g id="edge10" class="edge">
<title>N1&#45;&gt;N9</title>
<path fill="none" stroke="black" d="M280.41,-215.68C260.03,-196.5 234.46,-165.44 254,-144 279.2,-116.34 472.35,-102.87 626.72,-96.48"/>
<polygon fill="black" stroke="black" points="626.4,-99.99 636.25,-96.09 626.11,-93 626.4,-99.99"/>
</g>
<!-- N1&#45;&gt;N2 -->
<g id="edge9" class="edge">
<title>N1&#45;&gt;N2</title>
<path fill="none" stroke="black" d="M357.95,-215.52C389.35,-205.88 428.53,-193.84 461.47,-183.73"/>
<polygon fill="black" stroke="black" points="462.41,-187.11 470.94,-180.83 460.35,-180.42 462.41,-187.11"/>
</g>
<!-- N2&#45;&gt;N9 -->
<g id="edge11" class="edge">
<title>N2&#45;&gt;N9</title>
<path fill="none" stroke="black" d="M602.43,-143.52C643.81,-133.66 695.68,-121.31 738.72,-111.07"/>
<polygon fill="black" stroke="black" points="739.35,-114.51 748.27,-108.79 737.73,-107.7 739.35,-114.51"/>
</g>
<!-- N3 -->
<g id="node11" class="node">
<title>N3</title>
<polygon fill="none" stroke="black" points="1043.5,-252 592.5,-252 592.5,-216 1043.5,-216 1043.5,-252"/>
<text text-anchor="middle" x="818" y="-229.32" font-family="Times,serif" font-size="14.00">github.com/DHBW&#45;SE&#45;2023/YAAC/internal/frontend/template</text>
</g>
<!-- N3&#45;&gt;N9 -->
<g id="edge4" class="edge">
<title>N3&#45;&gt;N9</title>
<path fill="none" stroke="black" d="M818.61,-215.59C819.46,-191.61 820.99,-148.14 822,-119.42"/>
<polygon fill="black" stroke="black" points="825.49,-119.74 822.34,-109.62 818.49,-119.49 825.49,-119.74"/>
</g>
<!-- N8 -->
<g id="node12" class="node">
<title>N8</title>
<polygon fill="none" stroke="black" points="1322.5,-180 889.5,-180 889.5,-144 1322.5,-144 1322.5,-180"/>
<text text-anchor="middle" x="1106" y="-157.32" font-family="Times,serif" font-size="14.00">github.com/DHBW&#45;SE&#45;2023/YAAC/internal/backend/demon</text>
</g>
<!-- N8&#45;&gt;N9 -->
<g id="edge22" class="edge">
<title>N8&#45;&gt;N9</title>
<path fill="none" stroke="black" d="M1035.32,-143.52C995.58,-133.69 945.79,-121.37 904.42,-111.14"/>
<polygon fill="black" stroke="black" points="905.29,-107.75 894.74,-108.75 903.61,-114.54 905.29,-107.75"/>
</g>
<!-- N8&#45;&gt;N5 -->
<g id="edge21" class="edge">
<title>N8&#45;&gt;N5</title>
<path fill="none" stroke="black" d="M1106,-143.59C1106,-119.61 1106,-76.14 1106,-47.42"/>
<polygon fill="black" stroke="black" points="1109.5,-47.62 1106,-37.62 1102.5,-47.62 1109.5,-47.62"/>
</g>
<!-- N10&#45;&gt;N9 -->
<g id="edge20" class="edge">
<title>N10&#45;&gt;N9</title>
<path fill="none" stroke="black" d="M1089.12,-359.57C1084.72,-322.15 1072.55,-235.92 1052,-216 995.92,-161.65 944.29,-224.34 880,-180 858.33,-165.06 843.05,-138.92 833.8,-118.82"/>
<polygon fill="black" stroke="black" points="837.07,-117.56 829.88,-109.78 830.65,-120.34 837.07,-117.56"/>
</g>
<!-- N10&#45;&gt;N11 -->
<g id="edge15" class="edge">
<title>N10&#45;&gt;N11</title>
<path fill="none" stroke="black" d="M908.39,-373.15C690.74,-367.31 340.46,-353.58 213,-324 113.06,-300.81 0,-337.6 0,-235 0,-235 0,-235 0,-161 0,-93.68 60.04,-58.04 128.02,-39.27"/>
<polygon fill="black" stroke="black" points="128.74,-42.7 137.53,-36.78 126.97,-35.93 128.74,-42.7"/>
</g>
<!-- N10&#45;&gt;N0 -->
<g id="edge18" class="edge">
<title>N10&#45;&gt;N0</title>
<path fill="none" stroke="black" d="M926.66,-359.52C829.8,-349.21 707.29,-336.18 608.55,-325.68"/>
<polygon fill="black" stroke="black" points="609.06,-322.21 598.75,-324.63 608.32,-329.17 609.06,-322.21"/>
</g>
<!-- N10&#45;&gt;N5 -->
<g id="edge13" class="edge">
<title>N10&#45;&gt;N5</title>
<path fill="none" stroke="black" d="M1114.47,-359.64C1172.73,-316.3 1320.13,-205.02 1332,-180 1365.41,-109.53 1266.19,-63.81 1188.72,-39.71"/>
<polygon fill="black" stroke="black" points="1189.99,-36.43 1179.4,-36.89 1187.96,-43.13 1189.99,-36.43"/>
</g>
<!-- N10&#45;&gt;N6 -->
<g id="edge17" class="edge">
<title>N10&#45;&gt;N6</title>
<path fill="none" stroke="black" d="M1181.16,-359.52C1232.73,-349.52 1297.56,-336.95 1350.86,-326.61"/>
<polygon fill="black" stroke="black" points="1351.41,-330.07 1360.56,-324.73 1350.08,-323.2 1351.41,-330.07"/>
</g>
<!-- N10&#45;&gt;N12 -->
<g id="edge16" class="edge">
<title>N10&#45;&gt;N12</title>
<path fill="none" stroke="black" d="M1273.59,-371.5C1436.68,-364.86 1654.48,-351.03 1685,-324 1715.28,-297.19 1704,-275.45 1704,-235 1704,-235 1704,-235 1704,-161 1704,-116.87 1676.22,-72.39 1655.42,-45.26"/>
<polygon fill="black" stroke="black" points="1658.3,-43.27 1649.35,-37.61 1652.82,-47.62 1658.3,-43.27"/>
</g>
<!-- N10&#45;&gt;N3 -->
<g id="edge19" class="edge">
<title>N10&#45;&gt;N3</title>
<path fill="none" stroke="black" d="M1057.52,-359.59C1008.17,-333.91 915.84,-285.89 861.36,-257.55"/>
<polygon fill="black" stroke="black" points="863.15,-254.54 852.66,-253.03 859.92,-260.75 863.15,-254.54"/>
</g>
<!-- N10&#45;&gt;N8 -->
<g id="edge14" class="edge">
<title>N10&#45;&gt;N8</title>
<path fill="none" stroke="black" d="M1092.2,-359.85C1094.77,-323.14 1100.84,-236.66 1104,-191.53"/>
<polygon fill="black" stroke="black" points="1107.48,-191.96 1104.69,-181.74 1100.5,-191.47 1107.48,-191.96"/>
</g>
</g>
</svg>
