<?xml version="1.0" encoding="UTF-8" standalone="no"?>
<!DOCTYPE svg PUBLIC "-//W3C//DTD SVG 1.1//EN"
 "http://www.w3.org/Graphics/SVG/1.1/DTD/svg11.dtd">
<!-- Generated by graphviz version 10.0.1 (0)
 -->
<!-- Pages: 1 -->
<svg width="5407pt" height="1124pt"
 viewBox="0.00 0.00 5407.28 1124.00" xmlns="http://www.w3.org/2000/svg" xmlns:xlink="http://www.w3.org/1999/xlink">
<g id="graph0" class="graph" transform="scale(1 1) rotate(0) translate(4 1120)">
<polygon fill="white" stroke="none" points="-4,4 -4,-1120 5403.28,-1120 5403.28,4 -4,4"/>
<!-- N5 -->
<g id="node1" class="node">
<title>N5</title>
<polygon fill="none" stroke="black" points="1329.4,-396 1101.15,-396 1101.15,-360 1329.4,-360 1329.4,-396"/>
<text text-anchor="middle" x="1215.28" y="-373.32" font-family="Times,serif" font-size="14.00">github.com/emersion/go&#45;imap</text>
</g>
<!-- N51 -->
<g id="node58" class="node">
<title>N51</title>
<polygon fill="none" stroke="black" points="1346.28,-324 1084.28,-324 1084.28,-288 1346.28,-288 1346.28,-324"/>
<text text-anchor="middle" x="1215.28" y="-301.32" font-family="Times,serif" font-size="14.00">github.com/emersion/go&#45;imap/utf7</text>
</g>
<!-- N5&#45;&gt;N51 -->
<g id="edge24" class="edge">
<title>N5&#45;&gt;N51</title>
<path fill="none" stroke="black" d="M1215.28,-359.7C1215.28,-352.41 1215.28,-343.73 1215.28,-335.54"/>
<polygon fill="black" stroke="black" points="1218.78,-335.62 1215.28,-325.62 1211.78,-335.62 1218.78,-335.62"/>
</g>
<!-- N21 -->
<g id="node2" class="node">
<title>N21</title>
<polygon fill="none" stroke="black" points="3371.4,-468 3077.15,-468 3077.15,-432 3371.4,-432 3371.4,-468"/>
<text text-anchor="middle" x="3224.28" y="-445.32" font-family="Times,serif" font-size="14.00">fyne.io/fyne/v2/internal/driver/common</text>
</g>
<!-- N39 -->
<g id="node4" class="node">
<title>N39</title>
<polygon fill="none" stroke="black" points="3532.78,-36 3411.78,-36 3411.78,0 3532.78,0 3532.78,-36"/>
<text text-anchor="middle" x="3472.28" y="-13.32" font-family="Times,serif" font-size="14.00">fyne.io/fyne/v2</text>
</g>
<!-- N21&#45;&gt;N39 -->
<g id="edge13" class="edge">
<title>N21&#45;&gt;N39</title>
<path fill="none" stroke="black" d="M3279.06,-431.59C3295.56,-423.5 3311.78,-412.01 3321.28,-396 3329.44,-382.24 3331.05,-372.67 3321.28,-360 3282.83,-310.15 3222.72,-373.85 3184.28,-324 3164.89,-298.85 3154.83,-289.38 3204.28,-144 3216.13,-109.14 3215.77,-94.03 3245.28,-72 3289.86,-38.72 3352.03,-25.9 3400.03,-21.16"/>
<polygon fill="black" stroke="black" points="3400.12,-24.67 3409.78,-20.3 3399.51,-17.69 3400.12,-24.67"/>
</g>
<!-- N27 -->
<g id="node7" class="node">
<title>N27</title>
<polygon fill="none" stroke="black" points="3452.65,-180 3225.9,-180 3225.9,-144 3452.65,-144 3452.65,-180"/>
<text text-anchor="middle" x="3339.28" y="-157.32" font-family="Times,serif" font-size="14.00">fyne.io/fyne/v2/internal/async</text>
</g>
<!-- N21&#45;&gt;N27 -->
<g id="edge17" class="edge">
<title>N21&#45;&gt;N27</title>
<path fill="none" stroke="black" d="M3328.24,-431.51C3346.7,-423.65 3363.71,-412.32 3375.28,-396 3384.53,-382.95 3385.39,-372.4 3375.28,-360 3325.1,-298.45 3250.45,-385.55 3200.28,-324 3159.31,-273.75 3239.92,-216.7 3294.61,-185.81"/>
<polygon fill="black" stroke="black" points="3296.1,-188.98 3303.16,-181.08 3292.71,-182.86 3296.1,-188.98"/>
</g>
<!-- N40 -->
<g id="node9" class="node">
<title>N40</title>
<polygon fill="none" stroke="black" points="3132.65,-180 2905.9,-180 2905.9,-144 3132.65,-144 3132.65,-180"/>
<text text-anchor="middle" x="3019.28" y="-157.32" font-family="Times,serif" font-size="14.00">fyne.io/fyne/v2/internal/cache</text>
</g>
<!-- N21&#45;&gt;N40 -->
<g id="edge18" class="edge">
<title>N21&#45;&gt;N40</title>
<path fill="none" stroke="black" d="M3266.3,-431.52C3281.06,-423.1 3296,-411.41 3304.28,-396 3311.85,-381.9 3314.39,-372.4 3304.28,-360 3254.1,-298.45 3193.12,-371.22 3129.28,-324 3085.3,-291.47 3102.64,-260.1 3070.28,-216 3063.14,-206.27 3054.32,-196.5 3046.04,-188.05"/>
<polygon fill="black" stroke="black" points="3048.65,-185.71 3039.09,-181.15 3043.72,-190.68 3048.65,-185.71"/>
</g>
<!-- N18 -->
<g id="node31" class="node">
<title>N18</title>
<polygon fill="none" stroke="black" points="3295.28,-396 3039.28,-396 3039.28,-360 3295.28,-360 3295.28,-396"/>
<text text-anchor="middle" x="3167.28" y="-373.32" font-family="Times,serif" font-size="14.00">fyne.io/fyne/v2/internal/painter/gl</text>
</g>
<!-- N21&#45;&gt;N18 -->
<g id="edge20" class="edge">
<title>N21&#45;&gt;N18</title>
<path fill="none" stroke="black" d="M3210.19,-431.7C3203.63,-423.64 3195.69,-413.89 3188.44,-404.98"/>
<polygon fill="black" stroke="black" points="3191.19,-402.82 3182.16,-397.28 3185.76,-407.24 3191.19,-402.82"/>
</g>
<!-- N34 -->
<g id="node41" class="node">
<title>N34</title>
<polygon fill="none" stroke="black" points="2887.15,-252 2657.4,-252 2657.4,-216 2887.15,-216 2887.15,-252"/>
<text text-anchor="middle" x="2772.28" y="-229.32" font-family="Times,serif" font-size="14.00">fyne.io/fyne/v2/internal/driver</text>
</g>
<!-- N21&#45;&gt;N34 -->
<g id="edge19" class="edge">
<title>N21&#45;&gt;N34</title>
<path fill="none" stroke="black" d="M3146.67,-431.57C3110.72,-422.55 3067.76,-410.39 3030.28,-396 2997.06,-383.25 2917.37,-342.98 2887.28,-324 2856.31,-304.47 2823.52,-278.51 2800.92,-259.67"/>
<polygon fill="black" stroke="black" points="2803.25,-257.05 2793.34,-253.3 2798.74,-262.41 2803.25,-257.05"/>
</g>
<!-- N2 -->
<g id="node51" class="node">
<title>N2</title>
<polygon fill="none" stroke="black" points="4328.4,-252 4154.15,-252 4154.15,-216 4328.4,-216 4328.4,-252"/>
<text text-anchor="middle" x="4241.28" y="-229.32" font-family="Times,serif" font-size="14.00">fyne.io/fyne/v2/canvas</text>
</g>
<!-- N21&#45;&gt;N2 -->
<g id="edge14" class="edge">
<title>N21&#45;&gt;N2</title>
<path fill="none" stroke="black" d="M3307.07,-431.58C3494.31,-392.18 3949.35,-296.43 4147.02,-254.83"/>
<polygon fill="black" stroke="black" points="4147.69,-258.27 4156.76,-252.79 4146.25,-251.42 4147.69,-258.27"/>
</g>
<!-- N33 -->
<g id="node53" class="node">
<title>N33</title>
<polygon fill="none" stroke="black" points="2907.15,-396 2725.4,-396 2725.4,-360 2907.15,-360 2907.15,-396"/>
<text text-anchor="middle" x="2816.28" y="-373.32" font-family="Times,serif" font-size="14.00">fyne.io/fyne/v2/internal</text>
</g>
<!-- N21&#45;&gt;N33 -->
<g id="edge15" class="edge">
<title>N21&#45;&gt;N33</title>
<path fill="none" stroke="black" d="M3122.37,-431.52C3060.14,-420.84 2980.83,-407.23 2918.53,-396.54"/>
<polygon fill="black" stroke="black" points="2919.44,-393.15 2908.99,-394.91 2918.26,-400.05 2919.44,-393.15"/>
</g>
<!-- N6 -->
<g id="node59" class="node">
<title>N6</title>
<polygon fill="none" stroke="black" points="2609.53,-324 2397.03,-324 2397.03,-288 2609.53,-288 2609.53,-324"/>
<text text-anchor="middle" x="2503.28" y="-301.32" font-family="Times,serif" font-size="14.00">fyne.io/fyne/v2/internal/app</text>
</g>
<!-- N21&#45;&gt;N6 -->
<g id="edge16" class="edge">
<title>N21&#45;&gt;N6</title>
<path fill="none" stroke="black" d="M3076.81,-438.46C2938.59,-427.79 2748.48,-410.81 2716.28,-396 2695.14,-386.28 2698.39,-371.69 2678.28,-360 2654.27,-346.06 2626.25,-335.45 2599.75,-327.54"/>
<polygon fill="black" stroke="black" points="2600.93,-324.24 2590.35,-324.84 2598.99,-330.96 2600.93,-324.24"/>
</g>
<!-- N30 -->
<g id="node3" class="node">
<title>N30</title>
<polygon fill="none" stroke="black" points="442.65,-396 329.9,-396 329.9,-360 442.65,-360 442.65,-396"/>
<text text-anchor="middle" x="386.28" y="-373.32" font-family="Times,serif" font-size="14.00">gorm.io/gorm</text>
</g>
<!-- N13 -->
<g id="node16" class="node">
<title>N13</title>
<polygon fill="none" stroke="black" points="589.4,-252 427.15,-252 427.15,-216 589.4,-216 589.4,-252"/>
<text text-anchor="middle" x="508.28" y="-229.32" font-family="Times,serif" font-size="14.00">gorm.io/gorm/clause</text>
</g>
<!-- N30&#45;&gt;N13 -->
<g id="edge40" class="edge">
<title>N30&#45;&gt;N13</title>
<path fill="none" stroke="black" d="M398.9,-359.82C412.53,-341.57 435.12,-312.06 456.28,-288 464.45,-278.71 473.8,-268.93 482.31,-260.34"/>
<polygon fill="black" stroke="black" points="484.78,-262.82 489.38,-253.28 479.83,-257.87 484.78,-262.82"/>
</g>
<!-- N16 -->
<g id="node17" class="node">
<title>N16</title>
<polygon fill="none" stroke="black" points="707.9,-324 536.65,-324 536.65,-288 707.9,-288 707.9,-324"/>
<text text-anchor="middle" x="622.28" y="-301.32" font-family="Times,serif" font-size="14.00">gorm.io/gorm/schema</text>
</g>
<!-- N30&#45;&gt;N16 -->
<g id="edge42" class="edge">
<title>N30&#45;&gt;N16</title>
<path fill="none" stroke="black" d="M443.11,-360.14C476.11,-350.36 517.93,-337.95 552.87,-327.59"/>
<polygon fill="black" stroke="black" points="553.44,-331.07 562.03,-324.87 551.44,-324.36 553.44,-331.07"/>
</g>
<!-- N55 -->
<g id="node20" class="node">
<title>N55</title>
<polygon fill="none" stroke="black" points="367.78,-252 204.78,-252 204.78,-216 367.78,-216 367.78,-252"/>
<text text-anchor="middle" x="286.28" y="-229.32" font-family="Times,serif" font-size="14.00">gorm.io/gorm/logger</text>
</g>
<!-- N30&#45;&gt;N55 -->
<g id="edge41" class="edge">
<title>N30&#45;&gt;N55</title>
<path fill="none" stroke="black" d="M374.02,-359.59C356.75,-335.08 325.15,-290.19 304.95,-261.52"/>
<polygon fill="black" stroke="black" points="307.82,-259.51 299.2,-253.35 302.1,-263.54 307.82,-259.51"/>
</g>
<!-- N26 -->
<g id="node26" class="node">
<title>N26</title>
<polygon fill="none" stroke="black" points="582.65,-180 433.9,-180 433.9,-144 582.65,-144 582.65,-180"/>
<text text-anchor="middle" x="508.28" y="-157.32" font-family="Times,serif" font-size="14.00">gorm.io/gorm/utils</text>
</g>
<!-- N30&#45;&gt;N26 -->
<g id="edge43" class="edge">
<title>N30&#45;&gt;N26</title>
<path fill="none" stroke="black" d="M385.32,-359.72C384.46,-328.16 386.77,-260.38 418.28,-216 427.06,-203.63 439.72,-193.68 452.78,-185.9"/>
<polygon fill="black" stroke="black" points="454.4,-189 461.46,-181.09 451.02,-182.87 454.4,-189"/>
</g>
<!-- N48 -->
<g id="node5" class="node">
<title>N48</title>
<polygon fill="none" stroke="black" points="1558.65,-468 1253.9,-468 1253.9,-432 1558.65,-432 1558.65,-468"/>
<text text-anchor="middle" x="1406.28" y="-445.32" font-family="Times,serif" font-size="14.00">github.com/emersion/go&#45;imap/responses</text>
</g>
<!-- N48&#45;&gt;N5 -->
<g id="edge37" class="edge">
<title>N48&#45;&gt;N5</title>
<path fill="none" stroke="black" d="M1358.57,-431.52C1332.72,-422.04 1300.58,-410.26 1273.29,-400.26"/>
<polygon fill="black" stroke="black" points="1274.72,-397.06 1264.13,-396.9 1272.31,-403.63 1274.72,-397.06"/>
</g>
<!-- N48&#45;&gt;N51 -->
<g id="edge38" class="edge">
<title>N48&#45;&gt;N51</title>
<path fill="none" stroke="black" d="M1396.83,-431.8C1385.27,-412.15 1364.03,-380.1 1338.28,-360 1321.73,-347.09 1301.55,-336.69 1282.37,-328.64"/>
<polygon fill="black" stroke="black" points="1283.83,-325.45 1273.25,-324.97 1281.22,-331.95 1283.83,-325.45"/>
</g>
<!-- N58 -->
<g id="node6" class="node">
<title>N58</title>
<polygon fill="none" stroke="black" points="4289.78,-180 4078.78,-180 4078.78,-144 4289.78,-144 4289.78,-180"/>
<text text-anchor="middle" x="4184.28" y="-157.32" font-family="Times,serif" font-size="14.00">fyne.io/fyne/v2/internal/svg</text>
</g>
<!-- N58&#45;&gt;N39 -->
<g id="edge35" class="edge">
<title>N58&#45;&gt;N39</title>
<path fill="none" stroke="black" d="M4186.56,-143.65C4188.17,-123.22 4187.22,-89.82 4167.28,-72 4121.59,-31.19 3713.34,-21.78 3544.68,-19.63"/>
<polygon fill="black" stroke="black" points="3544.76,-16.13 3534.71,-19.51 3544.67,-23.13 3544.76,-16.13"/>
</g>
<!-- N59 -->
<g id="node38" class="node">
<title>N59</title>
<polygon fill="none" stroke="black" points="4682.03,-108 4460.53,-108 4460.53,-72 4682.03,-72 4682.03,-108"/>
<text text-anchor="middle" x="4571.28" y="-85.33" font-family="Times,serif" font-size="14.00">fyne.io/fyne/v2/internal/color</text>
</g>
<!-- N58&#45;&gt;N59 -->
<g id="edge36" class="edge">
<title>N58&#45;&gt;N59</title>
<path fill="none" stroke="black" d="M4280.94,-143.52C4336.45,-133.48 4406.3,-120.84 4463.57,-110.48"/>
<polygon fill="black" stroke="black" points="4464.14,-113.94 4473.36,-108.71 4462.89,-107.05 4464.14,-113.94"/>
</g>
<!-- N27&#45;&gt;N39 -->
<g id="edge169" class="edge">
<title>N27&#45;&gt;N39</title>
<path fill="none" stroke="black" d="M3355.59,-143.59C3378.85,-118.76 3421.69,-73.01 3448.49,-44.4"/>
<polygon fill="black" stroke="black" points="3450.94,-46.91 3455.22,-37.22 3445.83,-42.12 3450.94,-46.91"/>
</g>
<!-- N28 -->
<g id="node8" class="node">
<title>N28</title>
<polygon fill="none" stroke="black" points="4490.9,-756 3959.65,-756 3959.65,-720 4490.9,-720 4490.9,-756"/>
<text text-anchor="middle" x="4225.28" y="-733.33" font-family="Times,serif" font-size="14.00">github.com/DHBW&#45;SE&#45;2023/YAAC/internal/frontend/main/pages/settings</text>
</g>
<!-- N28&#45;&gt;N39 -->
<g id="edge110" class="edge">
<title>N28&#45;&gt;N39</title>
<path fill="none" stroke="black" d="M4163.51,-719.55C4025.15,-677.06 3689.79,-554.42 3527.28,-324 3466.62,-238 3466.55,-105.38 3469.89,-47.57"/>
<polygon fill="black" stroke="black" points="3473.36,-48.14 3470.53,-37.93 3466.37,-47.67 3473.36,-48.14"/>
</g>
<!-- N17 -->
<g id="node12" class="node">
<title>N17</title>
<polygon fill="none" stroke="black" points="1771.28,-684 1401.28,-684 1401.28,-648 1771.28,-648 1771.28,-684"/>
<text text-anchor="middle" x="1586.28" y="-661.33" font-family="Times,serif" font-size="14.00">github.com/DHBW&#45;SE&#45;2023/YAAC/internal/shared</text>
</g>
<!-- N28&#45;&gt;N17 -->
<g id="edge115" class="edge">
<title>N28&#45;&gt;N17</title>
<path fill="none" stroke="black" d="M3959.24,-729.94C3428.78,-715.87 2250.34,-684.61 1782.87,-672.21"/>
<polygon fill="black" stroke="black" points="1783.22,-668.72 1773.13,-671.96 1783.03,-675.72 1783.22,-668.72"/>
</g>
<!-- N15 -->
<g id="node23" class="node">
<title>N15</title>
<polygon fill="none" stroke="black" points="4284.4,-396 4110.15,-396 4110.15,-360 4284.4,-360 4284.4,-396"/>
<text text-anchor="middle" x="4197.28" y="-373.32" font-family="Times,serif" font-size="14.00">fyne.io/fyne/v2/widget</text>
</g>
<!-- N28&#45;&gt;N15 -->
<g id="edge114" class="edge">
<title>N28&#45;&gt;N15</title>
<path fill="none" stroke="black" d="M4219.21,-719.76C4210.44,-693.28 4195.28,-640.86 4195.28,-595 4195.28,-595 4195.28,-595 4195.28,-521 4195.28,-481.74 4196.05,-436.37 4196.64,-407.69"/>
<polygon fill="black" stroke="black" points="4200.13,-408.07 4196.84,-398 4193.13,-407.92 4200.13,-408.07"/>
</g>
<!-- N20 -->
<g id="node24" class="node">
<title>N20</title>
<polygon fill="none" stroke="black" points="4492.78,-468 4299.78,-468 4299.78,-432 4492.78,-432 4492.78,-468"/>
<text text-anchor="middle" x="4396.28" y="-445.32" font-family="Times,serif" font-size="14.00">fyne.io/fyne/v2/container</text>
</g>
<!-- N28&#45;&gt;N20 -->
<g id="edge112" class="edge">
<title>N28&#45;&gt;N20</title>
<path fill="none" stroke="black" d="M4235.72,-719.54C4264.58,-671.26 4345.63,-535.71 4380.26,-477.79"/>
<polygon fill="black" stroke="black" points="4383.07,-479.91 4385.2,-469.53 4377.06,-476.32 4383.07,-479.91"/>
</g>
<!-- N53 -->
<g id="node46" class="node">
<title>N53</title>
<polygon fill="none" stroke="black" points="4915.15,-324 4745.4,-324 4745.4,-288 4915.15,-288 4915.15,-324"/>
<text text-anchor="middle" x="4830.28" y="-301.32" font-family="Times,serif" font-size="14.00">fyne.io/fyne/v2/layout</text>
</g>
<!-- N28&#45;&gt;N53 -->
<g id="edge113" class="edge">
<title>N28&#45;&gt;N53</title>
<path fill="none" stroke="black" d="M4247.78,-719.53C4319.02,-664.48 4546.55,-490.53 4744.28,-360 4759.53,-349.93 4776.61,-339.28 4791.5,-330.19"/>
<polygon fill="black" stroke="black" points="4792.91,-333.43 4799.64,-325.25 4789.28,-327.45 4792.91,-333.43"/>
</g>
<!-- N28&#45;&gt;N2 -->
<g id="edge111" class="edge">
<title>N28&#45;&gt;N2</title>
<path fill="none" stroke="black" d="M4272.72,-719.57C4389.96,-676.31 4686.83,-565.71 4727.28,-540 4746.91,-527.52 4746.38,-517.57 4765.28,-504 4793.06,-484.06 4804.18,-485.96 4833.28,-468 4913.85,-418.25 5011.95,-357.17 4947.28,-288 4906.51,-244.4 4470.76,-256.97 4411.28,-252 4388.16,-250.07 4363.31,-247.73 4339.93,-245.41"/>
<polygon fill="black" stroke="black" points="4340.39,-241.94 4330.09,-244.43 4339.69,-248.91 4340.39,-241.94"/>
</g>
<!-- N40&#45;&gt;N39 -->
<g id="edge84" class="edge">
<title>N40&#45;&gt;N39</title>
<path fill="none" stroke="black" d="M3037.88,-143.82C3061.29,-123.23 3103.63,-89.34 3146.28,-72 3229.25,-38.26 3332.35,-25.96 3400.12,-21.5"/>
<polygon fill="black" stroke="black" points="3400.24,-25 3410,-20.9 3399.81,-18.01 3400.24,-25"/>
</g>
<!-- N41 -->
<g id="node10" class="node">
<title>N41</title>
<polygon fill="none" stroke="black" points="2179.78,-756 1728.78,-756 1728.78,-720 2179.78,-720 2179.78,-756"/>
<text text-anchor="middle" x="1954.28" y="-733.33" font-family="Times,serif" font-size="14.00">github.com/DHBW&#45;SE&#45;2023/YAAC/internal/frontend/template</text>
</g>
<!-- N41&#45;&gt;N39 -->
<g id="edge72" class="edge">
<title>N41&#45;&gt;N39</title>
<path fill="none" stroke="black" d="M1922.31,-719.57C1887.72,-700.96 1830.74,-671.06 1780.28,-648 1741.47,-630.27 1721.6,-642.02 1691.28,-612 1636.2,-557.47 1624.28,-528.5 1624.28,-451 1624.28,-451 1624.28,-451 1624.28,-161 1624.28,-118.81 1623,-96.6 1657.28,-72 1729.18,-20.4 3071.82,-18.55 3400.25,-18.87"/>
<polygon fill="black" stroke="black" points="3399.98,-22.37 3409.98,-18.88 3399.99,-15.37 3399.98,-22.37"/>
</g>
<!-- N41&#45;&gt;N17 -->
<g id="edge75" class="edge">
<title>N41&#45;&gt;N17</title>
<path fill="none" stroke="black" d="M1862.37,-719.52C1809.69,-709.5 1743.44,-696.89 1689.04,-686.55"/>
<polygon fill="black" stroke="black" points="1689.94,-683.16 1679.46,-684.73 1688.63,-690.03 1689.94,-683.16"/>
</g>
<!-- N41&#45;&gt;N15 -->
<g id="edge74" class="edge">
<title>N41&#45;&gt;N15</title>
<path fill="none" stroke="black" d="M2180.11,-733.44C2523.16,-723.29 3193.66,-684.79 3742.28,-540 3859.7,-509.01 3878.4,-471.38 3993.28,-432 4030.29,-419.31 4071.98,-407.97 4107.98,-399.07"/>
<polygon fill="black" stroke="black" points="4108.6,-402.53 4117.49,-396.75 4106.94,-395.73 4108.6,-402.53"/>
</g>
<!-- N41&#45;&gt;N20 -->
<g id="edge73" class="edge">
<title>N41&#45;&gt;N20</title>
<path fill="none" stroke="black" d="M2179.89,-734.78C2636.37,-729.66 3639.31,-715.01 3793.28,-684 4012.75,-639.79 4256.32,-523 4353.17,-473.59"/>
<polygon fill="black" stroke="black" points="4354.52,-476.83 4361.82,-469.16 4351.33,-470.61 4354.52,-476.83"/>
</g>
<!-- N52 -->
<g id="node11" class="node">
<title>N52</title>
<polygon fill="none" stroke="black" points="1787.65,-972 1422.9,-972 1422.9,-936 1787.65,-936 1787.65,-972"/>
<text text-anchor="middle" x="1605.28" y="-949.33" font-family="Times,serif" font-size="14.00">github.com/DHBW&#45;SE&#45;2023/YAAC/internal/mvvm</text>
</g>
<!-- N52&#45;&gt;N41 -->
<g id="edge54" class="edge">
<title>N52&#45;&gt;N41</title>
<path fill="none" stroke="black" d="M1633.54,-935.67C1696,-897.37 1845.81,-805.51 1916.34,-762.26"/>
<polygon fill="black" stroke="black" points="1917.76,-765.5 1924.46,-757.28 1914.1,-759.53 1917.76,-765.5"/>
</g>
<!-- N52&#45;&gt;N17 -->
<g id="edge55" class="edge">
<title>N52&#45;&gt;N17</title>
<path fill="none" stroke="black" d="M1604.12,-935.54C1600.94,-887.76 1592.09,-754.51 1588.18,-695.61"/>
<polygon fill="black" stroke="black" points="1591.68,-695.49 1587.52,-685.74 1584.69,-695.95 1591.68,-695.49"/>
</g>
<!-- N37 -->
<g id="node19" class="node">
<title>N37</title>
<polygon fill="none" stroke="black" points="1399.15,-612 983.4,-612 983.4,-576 1399.15,-576 1399.15,-612"/>
<text text-anchor="middle" x="1191.28" y="-589.33" font-family="Times,serif" font-size="14.00">github.com/DHBW&#45;SE&#45;2023/YAAC/internal/backend/mail</text>
</g>
<!-- N52&#45;&gt;N37 -->
<g id="edge51" class="edge">
<title>N52&#45;&gt;N37</title>
<path fill="none" stroke="black" d="M1475.99,-935.51C1350,-914.74 1177.28,-874.66 1177.28,-811 1177.28,-811 1177.28,-811 1177.28,-737 1177.28,-697.55 1182.7,-652.23 1186.79,-623.61"/>
<polygon fill="black" stroke="black" points="1190.22,-624.34 1188.22,-613.93 1183.3,-623.31 1190.22,-624.34"/>
</g>
<!-- N54 -->
<g id="node22" class="node">
<title>N54</title>
<polygon fill="none" stroke="black" points="847.03,-612 397.53,-612 397.53,-576 847.03,-576 847.03,-612"/>
<text text-anchor="middle" x="622.28" y="-589.33" font-family="Times,serif" font-size="14.00">github.com/DHBW&#45;SE&#45;2023/YAAC/internal/backend/database</text>
</g>
<!-- N52&#45;&gt;N54 -->
<g id="edge48" class="edge">
<title>N52&#45;&gt;N54</title>
<path fill="none" stroke="black" d="M1422.46,-944.58C1140.14,-929.09 630.28,-890.17 630.28,-811 630.28,-811 630.28,-811 630.28,-737 630.28,-697.68 627.18,-652.33 624.84,-623.67"/>
<polygon fill="black" stroke="black" points="628.35,-623.65 624.02,-613.98 621.38,-624.24 628.35,-623.65"/>
</g>
<!-- N60 -->
<g id="node42" class="node">
<title>N60</title>
<polygon fill="none" stroke="black" points="4142.53,-900 3720.03,-900 3720.03,-864 4142.53,-864 4142.53,-900"/>
<text text-anchor="middle" x="3931.28" y="-877.33" font-family="Times,serif" font-size="14.00">github.com/DHBW&#45;SE&#45;2023/YAAC/internal/frontend/main</text>
</g>
<!-- N52&#45;&gt;N60 -->
<g id="edge53" class="edge">
<title>N52&#45;&gt;N60</title>
<path fill="none" stroke="black" d="M1787.8,-947.51C2209.44,-934.82 3250.05,-903.5 3708.41,-889.71"/>
<polygon fill="black" stroke="black" points="3708.39,-893.21 3718.28,-889.41 3708.18,-886.21 3708.39,-893.21"/>
</g>
<!-- N42 -->
<g id="node47" class="node">
<title>N42</title>
<polygon fill="none" stroke="black" points="5105.03,-612 4661.53,-612 4661.53,-576 5105.03,-576 5105.03,-612"/>
<text text-anchor="middle" x="4883.28" y="-589.33" font-family="Times,serif" font-size="14.00">github.com/DHBW&#45;SE&#45;2023/YAAC/internal/backend/imgproc</text>
</g>
<!-- N52&#45;&gt;N42 -->
<g id="edge50" class="edge">
<title>N52&#45;&gt;N42</title>
<path fill="none" stroke="black" d="M1787.89,-951.78C2430.73,-947.25 4553.93,-930.02 4618.28,-900 4746.57,-840.14 4837.29,-685.1 4869.93,-622.15"/>
<polygon fill="black" stroke="black" points="4872.9,-624.04 4874.33,-613.54 4866.67,-620.86 4872.9,-624.04"/>
</g>
<!-- N7 -->
<g id="node50" class="node">
<title>N7</title>
<polygon fill="none" stroke="black" points="4609.65,-900 4160.9,-900 4160.9,-864 4609.65,-864 4609.65,-900"/>
<text text-anchor="middle" x="4385.28" y="-877.33" font-family="Times,serif" font-size="14.00">github.com/DHBW&#45;SE&#45;2023/YAAC/internal/backend/template</text>
</g>
<!-- N52&#45;&gt;N7 -->
<g id="edge52" class="edge">
<title>N52&#45;&gt;N7</title>
<path fill="none" stroke="black" d="M1787.92,-952.44C2204.48,-950.44 3257.04,-941.42 4149.02,-900.09"/>
<polygon fill="black" stroke="black" points="4149.16,-903.59 4158.98,-899.62 4148.83,-896.59 4149.16,-903.59"/>
</g>
<!-- N12 -->
<g id="node57" class="node">
<title>N12</title>
<polygon fill="none" stroke="black" points="1148.78,-756 715.78,-756 715.78,-720 1148.78,-720 1148.78,-756"/>
<text text-anchor="middle" x="932.28" y="-733.33" font-family="Times,serif" font-size="14.00">github.com/DHBW&#45;SE&#45;2023/YAAC/internal/backend/demon</text>
</g>
<!-- N52&#45;&gt;N12 -->
<g id="edge49" class="edge">
<title>N52&#45;&gt;N12</title>
<path fill="none" stroke="black" d="M1422.42,-940.02C1322.6,-931.17 1210.04,-917.82 1163.28,-900 1080.46,-868.45 999.1,-800.84 958.66,-764.07"/>
<polygon fill="black" stroke="black" points="961.04,-761.51 951.32,-757.31 956.3,-766.66 961.04,-761.51"/>
</g>
<!-- N17&#45;&gt;N39 -->
<g id="edge164" class="edge">
<title>N17&#45;&gt;N39</title>
<path fill="none" stroke="black" d="M1586.28,-647.51C1586.28,-620.71 1586.28,-567.87 1586.28,-523 1586.28,-523 1586.28,-523 1586.28,-161 1586.28,-120.03 1578.11,-97.37 1610.28,-72 1681.67,-15.68 3065.4,-17.41 3399.93,-18.66"/>
<polygon fill="black" stroke="black" points="3399.86,-22.16 3409.87,-18.7 3399.88,-15.16 3399.86,-22.16"/>
</g>
<!-- N17&#45;&gt;N37 -->
<g id="edge168" class="edge">
<title>N17&#45;&gt;N37</title>
<path fill="none" stroke="black" d="M1487.62,-647.52C1430.84,-637.45 1359.37,-624.79 1300.85,-614.42"/>
<polygon fill="black" stroke="black" points="1301.65,-611.01 1291.19,-612.71 1300.43,-617.9 1301.65,-611.01"/>
</g>
<!-- N17&#45;&gt;N54 -->
<g id="edge166" class="edge">
<title>N17&#45;&gt;N54</title>
<path fill="none" stroke="black" d="M1400.98,-651.54C1246.6,-640.33 1025.77,-624.3 858.68,-612.17"/>
<polygon fill="black" stroke="black" points="858.98,-608.68 848.76,-611.45 858.48,-615.66 858.98,-608.68"/>
</g>
<!-- N17&#45;&gt;N42 -->
<g id="edge167" class="edge">
<title>N17&#45;&gt;N42</title>
<path fill="none" stroke="black" d="M1771.5,-661.07C2334.83,-649.11 4027.08,-613.18 4649.9,-599.96"/>
<polygon fill="black" stroke="black" points="4649.81,-603.46 4659.74,-599.75 4649.66,-596.46 4649.81,-603.46"/>
</g>
<!-- N31 -->
<g id="node52" class="node">
<title>N31</title>
<polygon fill="none" stroke="black" points="1852.15,-612 1700.4,-612 1700.4,-576 1852.15,-576 1852.15,-612"/>
<text text-anchor="middle" x="1776.28" y="-589.33" font-family="Times,serif" font-size="14.00">fyne.io/fyne/v2/app</text>
</g>
<!-- N17&#45;&gt;N31 -->
<g id="edge165" class="edge">
<title>N17&#45;&gt;N31</title>
<path fill="none" stroke="black" d="M1633.73,-647.52C1659.45,-638.04 1691.42,-626.26 1718.57,-616.26"/>
<polygon fill="black" stroke="black" points="1719.51,-619.65 1727.68,-612.9 1717.09,-613.08 1719.51,-619.65"/>
</g>
<!-- N50 -->
<g id="node13" class="node">
<title>N50</title>
<polygon fill="none" stroke="black" points="4158.03,-108 3936.53,-108 3936.53,-72 4158.03,-72 4158.03,-108"/>
<text text-anchor="middle" x="4047.28" y="-85.33" font-family="Times,serif" font-size="14.00">fyne.io/fyne/v2/driver/mobile</text>
</g>
<!-- N50&#45;&gt;N39 -->
<g id="edge59" class="edge">
<title>N50&#45;&gt;N39</title>
<path fill="none" stroke="black" d="M3936.2,-73.79C3931.5,-73.18 3926.84,-72.58 3922.28,-72 3789.01,-55.09 3633.31,-37.16 3544.4,-27.09"/>
<polygon fill="black" stroke="black" points="3544.93,-23.63 3534.6,-25.98 3544.14,-30.58 3544.93,-23.63"/>
</g>
<!-- N57 -->
<g id="node14" class="node">
<title>N57</title>
<polygon fill="none" stroke="black" points="4717.78,-540 4548.78,-540 4548.78,-504 4717.78,-504 4717.78,-540"/>
<text text-anchor="middle" x="4633.28" y="-517.33" font-family="Times,serif" font-size="14.00">fyne.io/fyne/v2/dialog</text>
</g>
<!-- N57&#45;&gt;N39 -->
<g id="edge198" class="edge">
<title>N57&#45;&gt;N39</title>
<path fill="none" stroke="black" d="M4718.11,-509.92C4733.79,-507.91 4750.03,-505.87 4765.28,-504 5026.33,-472.03 5323.28,-570 5323.28,-307 5323.28,-307 5323.28,-307 5323.28,-161 5323.28,-44.31 5190.88,-93.97 5076.28,-72 4924.89,-42.97 3836.66,-24.53 3544.38,-20.06"/>
<polygon fill="black" stroke="black" points="3544.66,-16.56 3534.61,-19.91 3544.56,-23.56 3544.66,-16.56"/>
</g>
<!-- N57&#45;&gt;N15 -->
<g id="edge208" class="edge">
<title>N57&#45;&gt;N15</title>
<path fill="none" stroke="black" d="M4613.53,-503.55C4589.16,-483.02 4545.61,-449.53 4502.28,-432 4436.38,-405.34 4357.16,-392.08 4295.97,-385.49"/>
<polygon fill="black" stroke="black" points="4296.57,-382.04 4286.27,-384.49 4295.86,-389 4296.57,-382.04"/>
</g>
<!-- N57&#45;&gt;N20 -->
<g id="edge200" class="edge">
<title>N57&#45;&gt;N20</title>
<path fill="none" stroke="black" d="M4574.08,-503.52C4541.3,-493.83 4500.35,-481.74 4466.02,-471.6"/>
<polygon fill="black" stroke="black" points="4467.16,-468.29 4456.58,-468.81 4465.18,-475 4467.16,-468.29"/>
</g>
<!-- N44 -->
<g id="node27" class="node">
<title>N44</title>
<polygon fill="none" stroke="black" points="4460.78,-324 4225.78,-324 4225.78,-288 4460.78,-288 4460.78,-324"/>
<text text-anchor="middle" x="4343.28" y="-301.32" font-family="Times,serif" font-size="14.00">fyne.io/fyne/v2/internal/widget</text>
</g>
<!-- N57&#45;&gt;N44 -->
<g id="edge203" class="edge">
<title>N57&#45;&gt;N44</title>
<path fill="none" stroke="black" d="M4619.1,-503.64C4603.11,-484.69 4575.74,-454.11 4548.28,-432 4496.99,-390.7 4430.94,-352.77 4387.87,-329.78"/>
<polygon fill="black" stroke="black" points="4389.52,-326.69 4379.05,-325.11 4386.25,-332.88 4389.52,-326.69"/>
</g>
<!-- N57&#45;&gt;N59 -->
<g id="edge202" class="edge">
<title>N57&#45;&gt;N59</title>
<path fill="none" stroke="black" d="M4717.84,-509.95C4830.37,-495.19 5016.12,-470.57 5023.28,-468 5119.42,-433.42 5180.73,-389.15 5166.28,-288 5161.56,-255 5169.65,-238.74 5145.28,-216 5080.91,-155.95 4842.34,-120.05 4693.78,-103.03"/>
<polygon fill="black" stroke="black" points="4694.19,-99.55 4683.86,-101.91 4693.41,-106.51 4694.19,-99.55"/>
</g>
<!-- N22 -->
<g id="node43" class="node">
<title>N22</title>
<polygon fill="none" stroke="black" points="3750.53,-252 3580.03,-252 3580.03,-216 3750.53,-216 3750.53,-252"/>
<text text-anchor="middle" x="3665.28" y="-229.32" font-family="Times,serif" font-size="14.00">fyne.io/fyne/v2/theme</text>
</g>
<!-- N57&#45;&gt;N22 -->
<g id="edge207" class="edge">
<title>N57&#45;&gt;N22</title>
<path fill="none" stroke="black" d="M4548.33,-518.91C4388.5,-511.32 4037.22,-477.04 3793.28,-324 3773.57,-311.64 3773.86,-301.99 3755.28,-288 3740.78,-277.09 3723.86,-266.61 3708.63,-257.89"/>
<polygon fill="black" stroke="black" points="3710.66,-255.01 3700.23,-253.17 3707.24,-261.12 3710.66,-255.01"/>
</g>
<!-- N43 -->
<g id="node45" class="node">
<title>N43</title>
<polygon fill="none" stroke="black" points="5136.15,-252 4906.4,-252 4906.4,-216 5136.15,-216 5136.15,-252"/>
<text text-anchor="middle" x="5021.28" y="-229.32" font-family="Times,serif" font-size="14.00">fyne.io/fyne/v2/driver/desktop</text>
</g>
<!-- N57&#45;&gt;N43 -->
<g id="edge201" class="edge">
<title>N57&#45;&gt;N43</title>
<path fill="none" stroke="black" d="M4718.19,-509.85C4798.79,-498.78 4913.88,-481.53 4957.28,-468 5028.64,-445.75 5055.29,-447.7 5109.28,-396 5146.03,-360.81 5175.43,-330.39 5147.28,-288 5138.42,-274.67 5125.49,-264.68 5111.24,-257.21"/>
<polygon fill="black" stroke="black" points="5113.1,-254.22 5102.57,-253.07 5110.09,-260.53 5113.1,-254.22"/>
</g>
<!-- N57&#45;&gt;N53 -->
<g id="edge204" class="edge">
<title>N57&#45;&gt;N53</title>
<path fill="none" stroke="black" d="M4649.07,-503.85C4683.58,-466.36 4765.89,-376.95 4806.62,-332.7"/>
<polygon fill="black" stroke="black" points="4809.19,-335.07 4813.39,-325.35 4804.04,-330.33 4809.19,-335.07"/>
</g>
<!-- N57&#45;&gt;N2 -->
<g id="edge199" class="edge">
<title>N57&#45;&gt;N2</title>
<path fill="none" stroke="black" d="M4689.16,-503.53C4795.74,-467.56 5010.11,-380.75 4924.28,-288 4919.37,-282.7 4528.05,-254.88 4340.02,-241.81"/>
<polygon fill="black" stroke="black" points="4340.49,-238.33 4330.27,-241.13 4340,-245.31 4340.49,-238.33"/>
</g>
<!-- N14 -->
<g id="node60" class="node">
<title>N14</title>
<polygon fill="none" stroke="black" points="3688.03,-180 3508.53,-180 3508.53,-144 3688.03,-144 3688.03,-180"/>
<text text-anchor="middle" x="3598.28" y="-157.32" font-family="Times,serif" font-size="14.00">fyne.io/fyne/v2/storage</text>
</g>
<!-- N57&#45;&gt;N14 -->
<g id="edge205" class="edge">
<title>N57&#45;&gt;N14</title>
<path fill="none" stroke="black" d="M4718.09,-512.02C4789.78,-499.39 4888,-469 4934.28,-396 4960.17,-355.17 4979.4,-324.13 4947.28,-288 4905.82,-241.36 4005.78,-186.13 3699.37,-168.62"/>
<polygon fill="black" stroke="black" points="3699.98,-165.15 3689.79,-168.07 3699.58,-172.14 3699.98,-165.15"/>
</g>
<!-- N36 -->
<g id="node62" class="node">
<title>N36</title>
<polygon fill="none" stroke="black" points="2262.03,-108 2004.53,-108 2004.53,-72 2262.03,-72 2262.03,-108"/>
<text text-anchor="middle" x="2133.28" y="-85.33" font-family="Times,serif" font-size="14.00">fyne.io/fyne/v2/storage/repository</text>
</g>
<!-- N57&#45;&gt;N36 -->
<g id="edge206" class="edge">
<title>N57&#45;&gt;N36</title>
<path fill="none" stroke="black" d="M4548.31,-520.57C4198.28,-518.55 2866.82,-508.32 2448.28,-468 2257.58,-449.63 2146.92,-542.34 2023.28,-396 2012.95,-383.78 2020.19,-375.7 2023.28,-360 2032.92,-310.93 2093.58,-176.57 2120.47,-118.42"/>
<polygon fill="black" stroke="black" points="2123.56,-120.09 2124.59,-109.54 2117.21,-117.14 2123.56,-120.09"/>
</g>
<!-- N9 -->
<g id="node15" class="node">
<title>N9</title>
<polygon fill="none" stroke="black" points="5152.4,-540 5038.15,-540 5038.15,-504 5152.4,-504 5152.4,-540"/>
<text text-anchor="middle" x="5095.28" y="-517.33" font-family="Times,serif" font-size="14.00">gocv.io/x/gocv</text>
</g>
<!-- N16&#45;&gt;N13 -->
<g id="edge56" class="edge">
<title>N16&#45;&gt;N13</title>
<path fill="none" stroke="black" d="M593.8,-287.52C579.28,-278.6 561.42,-267.63 545.79,-258.03"/>
<polygon fill="black" stroke="black" points="548.03,-255.3 537.68,-253.05 544.37,-261.27 548.03,-255.3"/>
</g>
<!-- N16&#45;&gt;N55 -->
<g id="edge57" class="edge">
<title>N16&#45;&gt;N55</title>
<path fill="none" stroke="black" d="M538.36,-287.52C490.02,-277.45 429.16,-264.77 379.36,-254.39"/>
<polygon fill="black" stroke="black" points="380.24,-251 369.74,-252.39 378.82,-257.85 380.24,-251"/>
</g>
<!-- N16&#45;&gt;N26 -->
<g id="edge58" class="edge">
<title>N16&#45;&gt;N26</title>
<path fill="none" stroke="black" d="M621.43,-287.57C619.69,-268.28 614.38,-237.13 598.28,-216 588.82,-203.58 575.54,-193.52 562.08,-185.64"/>
<polygon fill="black" stroke="black" points="564.08,-182.74 553.63,-181 560.72,-188.88 564.08,-182.74"/>
</g>
<!-- N29 -->
<g id="node18" class="node">
<title>N29</title>
<polygon fill="none" stroke="black" points="244.53,-468 26.03,-468 26.03,-432 244.53,-432 244.53,-468"/>
<text text-anchor="middle" x="135.28" y="-445.32" font-family="Times,serif" font-size="14.00">github.com/mattn/go&#45;sqlite3</text>
</g>
<!-- N37&#45;&gt;N5 -->
<g id="edge133" class="edge">
<title>N37&#45;&gt;N5</title>
<path fill="none" stroke="black" d="M1076.78,-575.52C962.89,-553.37 813.84,-508.57 879.28,-432 906.38,-400.29 1005.87,-387.44 1089.62,-382.29"/>
<polygon fill="black" stroke="black" points="1089.76,-385.79 1099.54,-381.71 1089.36,-378.8 1089.76,-385.79"/>
</g>
<!-- N23 -->
<g id="node33" class="node">
<title>N23</title>
<polygon fill="none" stroke="black" points="1355.53,-540 1083.03,-540 1083.03,-504 1355.53,-504 1355.53,-540"/>
<text text-anchor="middle" x="1219.28" y="-517.33" font-family="Times,serif" font-size="14.00">github.com/emersion/go&#45;imap/client</text>
</g>
<!-- N37&#45;&gt;N23 -->
<g id="edge134" class="edge">
<title>N37&#45;&gt;N23</title>
<path fill="none" stroke="black" d="M1198.2,-575.7C1201.22,-568.15 1204.83,-559.12 1208.21,-550.68"/>
<polygon fill="black" stroke="black" points="1211.41,-552.09 1211.87,-541.51 1204.91,-549.49 1211.41,-552.09"/>
</g>
<!-- N55&#45;&gt;N26 -->
<g id="edge27" class="edge">
<title>N55&#45;&gt;N26</title>
<path fill="none" stroke="black" d="M341.73,-215.52C372.3,-205.88 410.46,-193.84 442.53,-183.73"/>
<polygon fill="black" stroke="black" points="443.22,-187.18 451.71,-180.84 441.12,-180.51 443.22,-187.18"/>
</g>
<!-- N3 -->
<g id="node21" class="node">
<title>N3</title>
<polygon fill="none" stroke="black" points="5020.03,-540 4774.53,-540 4774.53,-504 5020.03,-504 5020.03,-540"/>
<text text-anchor="middle" x="4897.28" y="-517.33" font-family="Times,serif" font-size="14.00">github.com/otiai10/gosseract/v2</text>
</g>
<!-- N54&#45;&gt;N30 -->
<g id="edge118" class="edge">
<title>N54&#45;&gt;N30</title>
<path fill="none" stroke="black" d="M397.26,-576.99C244.85,-560.76 63.15,-528.95 17.28,-468 7.66,-455.22 6.8,-444.09 17.28,-432 55.46,-387.94 222.68,-379.65 318.39,-378.6"/>
<polygon fill="black" stroke="black" points="318.21,-382.1 328.18,-378.52 318.15,-375.1 318.21,-382.1"/>
</g>
<!-- N54&#45;&gt;N16 -->
<g id="edge119" class="edge">
<title>N54&#45;&gt;N16</title>
<path fill="none" stroke="black" d="M622.28,-575.54C622.28,-527.76 622.28,-394.51 622.28,-335.61"/>
<polygon fill="black" stroke="black" points="625.78,-335.75 622.28,-325.75 618.78,-335.75 625.78,-335.75"/>
</g>
<!-- N54&#45;&gt;N29 -->
<g id="edge116" class="edge">
<title>N54&#45;&gt;N29</title>
<path fill="none" stroke="black" d="M528.07,-575.54C482.73,-566.35 427.8,-554.07 379.28,-540 312.24,-520.56 237.06,-492.09 188.1,-472.62"/>
<polygon fill="black" stroke="black" points="189.45,-469.39 178.86,-468.92 186.85,-475.89 189.45,-469.39"/>
</g>
<!-- N10 -->
<g id="node30" class="node">
<title>N10</title>
<polygon fill="none" stroke="black" points="551.78,-540 388.78,-540 388.78,-504 551.78,-504 551.78,-540"/>
<text text-anchor="middle" x="470.28" y="-517.33" font-family="Times,serif" font-size="14.00">gorm.io/driver/sqlite</text>
</g>
<!-- N54&#45;&gt;N10 -->
<g id="edge117" class="edge">
<title>N54&#45;&gt;N10</title>
<path fill="none" stroke="black" d="M584.31,-575.52C564.38,-566.34 539.74,-554.99 518.47,-545.2"/>
<polygon fill="black" stroke="black" points="519.94,-542.02 509.4,-541.01 517.01,-548.38 519.94,-542.02"/>
</g>
<!-- N15&#45;&gt;N39 -->
<g id="edge141" class="edge">
<title>N15&#45;&gt;N39</title>
<path fill="none" stroke="black" d="M4284.81,-372.3C4386.61,-365.66 4547.55,-351.19 4601.28,-324 4640.82,-303.98 4650.82,-291.82 4670.28,-252 4705.63,-179.63 4746.98,-130.18 4691.28,-72 4651.47,-30.42 3800.1,-21.24 3544.32,-19.42"/>
<polygon fill="black" stroke="black" points="3544.49,-15.92 3534.46,-19.35 3544.44,-22.92 3544.49,-15.92"/>
</g>
<!-- N15&#45;&gt;N40 -->
<g id="edge146" class="edge">
<title>N15&#45;&gt;N40</title>
<path fill="none" stroke="black" d="M4109.78,-363.76C4042.77,-353.44 3948.07,-338.48 3865.28,-324 3593.99,-276.54 3275.1,-214.02 3117.56,-182.69"/>
<polygon fill="black" stroke="black" points="3118.48,-179.3 3107.99,-180.78 3117.11,-186.17 3118.48,-179.3"/>
</g>
<!-- N15&#45;&gt;N50 -->
<g id="edge145" class="edge">
<title>N15&#45;&gt;N50</title>
<path fill="none" stroke="black" d="M4183.31,-359.64C4157.39,-326.6 4101.62,-251.57 4070.28,-180 4061.76,-160.55 4055.88,-137.27 4052.2,-119.4"/>
<polygon fill="black" stroke="black" points="4055.67,-118.91 4050.33,-109.75 4048.8,-120.24 4055.67,-118.91"/>
</g>
<!-- N15&#45;&gt;N44 -->
<g id="edge151" class="edge">
<title>N15&#45;&gt;N44</title>
<path fill="none" stroke="black" d="M4233.74,-359.52C4252.8,-350.38 4276.34,-339.09 4296.7,-329.33"/>
<polygon fill="black" stroke="black" points="4298.16,-332.52 4305.66,-325.04 4295.13,-326.2 4298.16,-332.52"/>
</g>
<!-- N0 -->
<g id="node29" class="node">
<title>N0</title>
<polygon fill="none" stroke="black" points="3842.28,-108 3538.28,-108 3538.28,-72 3842.28,-72 3842.28,-108"/>
<text text-anchor="middle" x="3690.28" y="-85.33" font-family="Times,serif" font-size="14.00">fyne.io/fyne/v2/internal/repository/mime</text>
</g>
<!-- N15&#45;&gt;N0 -->
<g id="edge149" class="edge">
<title>N15&#45;&gt;N0</title>
<path fill="none" stroke="black" d="M4284.74,-362.76C4362.29,-349.7 4464.23,-331.33 4470.28,-324 4480.46,-311.66 4477.03,-302.51 4470.28,-288 4428.37,-197.91 4391.05,-182.08 4299.28,-144 4278.87,-135.53 4027.12,-115.64 3853.77,-102.78"/>
<polygon fill="black" stroke="black" points="3854.21,-99.3 3843.98,-102.05 3853.69,-106.28 3854.21,-99.3"/>
</g>
<!-- N46 -->
<g id="node37" class="node">
<title>N46</title>
<polygon fill="none" stroke="black" points="4022.03,-252 3806.53,-252 3806.53,-216 4022.03,-216 4022.03,-252"/>
<text text-anchor="middle" x="3914.28" y="-229.32" font-family="Times,serif" font-size="14.00">fyne.io/fyne/v2/data/binding</text>
</g>
<!-- N15&#45;&gt;N46 -->
<g id="edge143" class="edge">
<title>N15&#45;&gt;N46</title>
<path fill="none" stroke="black" d="M4109.68,-365.93C4071.84,-358.28 4028.31,-345.45 3993.28,-324 3967.54,-308.24 3945.45,-281.48 3931.23,-261.41"/>
<polygon fill="black" stroke="black" points="3934.29,-259.69 3925.75,-253.42 3928.52,-263.65 3934.29,-259.69"/>
</g>
<!-- N15&#45;&gt;N59 -->
<g id="edge147" class="edge">
<title>N15&#45;&gt;N59</title>
<path fill="none" stroke="black" d="M4284.87,-363.75C4293.45,-362.48 4302.03,-361.21 4310.28,-360 4422.66,-343.55 4468.07,-385.94 4563.28,-324 4638.25,-275.23 4696.04,-222.56 4653.28,-144 4646.69,-131.9 4636.03,-122.15 4624.54,-114.46"/>
<polygon fill="black" stroke="black" points="4626.41,-111.51 4616.05,-109.28 4622.76,-117.48 4626.41,-111.51"/>
</g>
<!-- N4 -->
<g id="node40" class="node">
<title>N4</title>
<polygon fill="none" stroke="black" points="3447.28,-324 3209.28,-324 3209.28,-288 3447.28,-288 3447.28,-324"/>
<text text-anchor="middle" x="3328.28" y="-301.32" font-family="Times,serif" font-size="14.00">fyne.io/fyne/v2/internal/painter</text>
</g>
<!-- N15&#45;&gt;N4 -->
<g id="edge148" class="edge">
<title>N15&#45;&gt;N4</title>
<path fill="none" stroke="black" d="M4109.98,-369.97C3956.7,-357.62 3638.48,-331.99 3458.92,-317.52"/>
<polygon fill="black" stroke="black" points="3459.32,-314.04 3449.07,-316.73 3458.75,-321.02 3459.32,-314.04"/>
</g>
<!-- N15&#45;&gt;N22 -->
<g id="edge154" class="edge">
<title>N15&#45;&gt;N22</title>
<path fill="none" stroke="black" d="M4109.71,-362.98C4061.69,-354.13 4001.47,-341.11 3949.28,-324 3912.23,-311.86 3906.05,-300.95 3869.28,-288 3832.84,-275.17 3791.76,-263.91 3756.06,-255.1"/>
<polygon fill="black" stroke="black" points="3757.18,-251.77 3746.64,-252.81 3755.52,-258.58 3757.18,-251.77"/>
</g>
<!-- N15&#45;&gt;N43 -->
<g id="edge144" class="edge">
<title>N15&#45;&gt;N43</title>
<path fill="none" stroke="black" d="M4284.86,-374.71C4378.16,-370.47 4529.42,-358.39 4655.28,-324 4693.28,-313.62 4698.65,-299.68 4736.28,-288 4787.22,-272.18 4844.83,-260.38 4894.85,-251.98"/>
<polygon fill="black" stroke="black" points="4895.28,-255.45 4904.57,-250.37 4894.14,-248.55 4895.28,-255.45"/>
</g>
<!-- N15&#45;&gt;N53 -->
<g id="edge152" class="edge">
<title>N15&#45;&gt;N53</title>
<path fill="none" stroke="black" d="M4284.69,-368.11C4383.81,-357.93 4550.25,-340.51 4693.28,-324 4706.39,-322.49 4720.2,-320.84 4733.81,-319.18"/>
<polygon fill="black" stroke="black" points="4734.16,-322.66 4743.66,-317.97 4733.31,-315.71 4734.16,-322.66"/>
</g>
<!-- N15&#45;&gt;N2 -->
<g id="edge142" class="edge">
<title>N15&#45;&gt;N2</title>
<path fill="none" stroke="black" d="M4200.09,-359.65C4203.29,-341.51 4209.13,-312.33 4217.28,-288 4220.1,-279.57 4223.82,-270.67 4227.48,-262.63"/>
<polygon fill="black" stroke="black" points="4230.61,-264.21 4231.71,-253.67 4224.28,-261.22 4230.61,-264.21"/>
</g>
<!-- N8 -->
<g id="node55" class="node">
<title>N8</title>
<polygon fill="none" stroke="black" points="4644.4,-180 4422.15,-180 4422.15,-144 4644.4,-144 4644.4,-180"/>
<text text-anchor="middle" x="4533.28" y="-157.32" font-family="Times,serif" font-size="14.00">fyne.io/fyne/v2/internal/scale</text>
</g>
<!-- N15&#45;&gt;N8 -->
<g id="edge150" class="edge">
<title>N15&#45;&gt;N8</title>
<path fill="none" stroke="black" d="M4284.8,-363.69C4386.54,-348.19 4540.75,-324.61 4541.28,-324 4573.01,-287.01 4557.87,-225.84 4544.94,-190.5"/>
<polygon fill="black" stroke="black" points="4548.3,-189.48 4541.43,-181.42 4541.77,-192 4548.3,-189.48"/>
</g>
<!-- N15&#45;&gt;N14 -->
<g id="edge153" class="edge">
<title>N15&#45;&gt;N14</title>
<path fill="none" stroke="black" d="M4109.97,-369.8C4080.12,-362.66 4049.66,-349.16 4031.28,-324 4002.97,-285.24 4063.09,-251.94 4031.28,-216 4009.63,-191.54 3820.58,-175.98 3699.54,-168.43"/>
<polygon fill="black" stroke="black" points="3700.11,-164.96 3689.92,-167.84 3699.68,-171.95 3700.11,-164.96"/>
</g>
<!-- N20&#45;&gt;N39 -->
<g id="edge2" class="edge">
<title>N20&#45;&gt;N39</title>
<path fill="none" stroke="black" d="M4493.13,-443.9C4708.71,-429.89 5209.28,-381.59 5209.28,-235 5209.28,-235 5209.28,-235 5209.28,-161 5209.28,-30.42 5057.93,-94.36 4929.28,-72 4658.65,-24.97 3799.64,-19.59 3544.44,-19.04"/>
<polygon fill="black" stroke="black" points="3544.63,-15.54 3534.62,-19.02 3544.61,-22.54 3544.63,-15.54"/>
</g>
<!-- N20&#45;&gt;N15 -->
<g id="edge9" class="edge">
<title>N20&#45;&gt;N15</title>
<path fill="none" stroke="black" d="M4346.58,-431.52C4319.52,-422 4285.86,-410.16 4257.34,-400.13"/>
<polygon fill="black" stroke="black" points="4258.71,-396.9 4248.12,-396.88 4256.39,-403.5 4258.71,-396.9"/>
</g>
<!-- N20&#45;&gt;N44 -->
<g id="edge6" class="edge">
<title>N20&#45;&gt;N44</title>
<path fill="none" stroke="black" d="M4389.78,-431.59C4380.75,-407.4 4364.32,-363.36 4353.6,-334.65"/>
<polygon fill="black" stroke="black" points="4356.97,-333.67 4350.19,-325.53 4350.41,-336.12 4356.97,-333.67"/>
</g>
<!-- N20&#45;&gt;N22 -->
<g id="edge8" class="edge">
<title>N20&#45;&gt;N22</title>
<path fill="none" stroke="black" d="M4299.39,-432.92C4228.32,-420.87 4138.05,-404.97 4101.28,-396 4094.72,-394.4 3875.56,-326.45 3869.28,-324 3834.45,-310.43 3827.44,-303.15 3793.28,-288 3769.27,-277.35 3742.45,-266.14 3719.59,-256.79"/>
<polygon fill="black" stroke="black" points="3721.03,-253.6 3710.45,-253.07 3718.39,-260.08 3721.03,-253.6"/>
</g>
<!-- N20&#45;&gt;N43 -->
<g id="edge4" class="edge">
<title>N20&#45;&gt;N43</title>
<path fill="none" stroke="black" d="M4492.96,-440.9C4602.94,-428.43 4785.28,-397.68 4924.28,-324 4954.18,-308.15 4981.95,-280.85 5000.04,-260.66"/>
<polygon fill="black" stroke="black" points="5002.47,-263.2 5006.42,-253.36 4997.2,-258.59 5002.47,-263.2"/>
</g>
<!-- N20&#45;&gt;N53 -->
<g id="edge7" class="edge">
<title>N20&#45;&gt;N53</title>
<path fill="none" stroke="black" d="M4442.13,-431.5C4491.66,-412.85 4573.08,-382.89 4644.28,-360 4680.19,-348.45 4720.4,-336.84 4754.22,-327.43"/>
<polygon fill="black" stroke="black" points="4754.8,-330.9 4763.51,-324.86 4752.94,-324.16 4754.8,-330.9"/>
</g>
<!-- N20&#45;&gt;N2 -->
<g id="edge3" class="edge">
<title>N20&#45;&gt;N2</title>
<path fill="none" stroke="black" d="M4415.75,-431.54C4448.27,-400.28 4506.65,-333.75 4470.28,-288 4453.65,-267.08 4394.09,-253.69 4339.89,-245.61"/>
<polygon fill="black" stroke="black" points="4340.67,-242.18 4330.27,-244.23 4339.67,-249.11 4340.67,-242.18"/>
</g>
<!-- N20&#45;&gt;N33 -->
<g id="edge5" class="edge">
<title>N20&#45;&gt;N33</title>
<path fill="none" stroke="black" d="M4299.32,-446.59C4075.58,-440.72 3505.89,-424.11 3030.28,-396 2993.94,-393.85 2954.17,-390.87 2918.89,-388"/>
<polygon fill="black" stroke="black" points="2919.36,-384.53 2909.11,-387.2 2918.79,-391.5 2919.36,-384.53"/>
</g>
<!-- N24 -->
<g id="node25" class="node">
<title>N24</title>
<polygon fill="none" stroke="black" points="518.4,-468 338.15,-468 338.15,-432 518.4,-432 518.4,-468"/>
<text text-anchor="middle" x="428.28" y="-445.32" font-family="Times,serif" font-size="14.00">gorm.io/gorm/migrator</text>
</g>
<!-- N24&#45;&gt;N30 -->
<g id="edge31" class="edge">
<title>N24&#45;&gt;N30</title>
<path fill="none" stroke="black" d="M417.9,-431.7C413.22,-423.9 407.58,-414.51 402.38,-405.83"/>
<polygon fill="black" stroke="black" points="405.47,-404.18 397.32,-397.4 399.46,-407.78 405.47,-404.18"/>
</g>
<!-- N24&#45;&gt;N13 -->
<g id="edge32" class="edge">
<title>N24&#45;&gt;N13</title>
<path fill="none" stroke="black" d="M436.04,-431.94C440.65,-421.61 446.5,-408.13 451.28,-396 469.46,-349.8 488.24,-295.16 499.06,-262.89"/>
<polygon fill="black" stroke="black" points="502.35,-264.09 502.19,-253.5 495.71,-261.88 502.35,-264.09"/>
</g>
<!-- N24&#45;&gt;N16 -->
<g id="edge34" class="edge">
<title>N24&#45;&gt;N16</title>
<path fill="none" stroke="black" d="M452.07,-431.59C486.63,-406.29 550.84,-359.29 589.76,-330.8"/>
<polygon fill="black" stroke="black" points="591.38,-333.96 597.38,-325.23 587.24,-328.31 591.38,-333.96"/>
</g>
<!-- N24&#45;&gt;N55 -->
<g id="edge33" class="edge">
<title>N24&#45;&gt;N55</title>
<path fill="none" stroke="black" d="M370.31,-431.53C352.19,-423.42 333.71,-411.94 321.28,-396 291.14,-357.37 285.66,-298.35 285.34,-263.52"/>
<polygon fill="black" stroke="black" points="288.84,-263.82 285.4,-253.8 281.84,-263.78 288.84,-263.82"/>
</g>
<!-- N44&#45;&gt;N39 -->
<g id="edge120" class="edge">
<title>N44&#45;&gt;N39</title>
<path fill="none" stroke="black" d="M4343.28,-287.79C4343.01,-269.76 4341.82,-240.67 4337.28,-216 4323.45,-140.83 4312.84,-103.65 4243.28,-72 4180.69,-43.52 3723.94,-26.67 3544.44,-21.08"/>
<polygon fill="black" stroke="black" points="3544.64,-17.59 3534.53,-20.78 3544.42,-24.58 3544.64,-17.59"/>
</g>
<!-- N44&#45;&gt;N40 -->
<g id="edge123" class="edge">
<title>N44&#45;&gt;N40</title>
<path fill="none" stroke="black" d="M4225.37,-302.46C4088.18,-297.96 3871.05,-285.62 3797.28,-252 3776.11,-242.35 3780.59,-225.32 3759.28,-216 3648.69,-167.62 3337.64,-189.16 3217.28,-180 3193.74,-178.21 3168.64,-176.16 3144.5,-174.12"/>
<polygon fill="black" stroke="black" points="3144.88,-170.64 3134.62,-173.28 3144.29,-177.61 3144.88,-170.64"/>
</g>
<!-- N44&#45;&gt;N22 -->
<g id="edge124" class="edge">
<title>N44&#45;&gt;N22</title>
<path fill="none" stroke="black" d="M4225.43,-296.95C4108.22,-288.29 3923.41,-272.91 3764.28,-252 3763.59,-251.91 3762.9,-251.82 3762.2,-251.72"/>
<polygon fill="black" stroke="black" points="3762.69,-248.26 3752.3,-250.33 3761.72,-255.19 3762.69,-248.26"/>
</g>
<!-- N44&#45;&gt;N43 -->
<g id="edge122" class="edge">
<title>N44&#45;&gt;N43</title>
<path fill="none" stroke="black" d="M4460.99,-292.85C4582.28,-280.32 4770.68,-260.87 4895.01,-248.04"/>
<polygon fill="black" stroke="black" points="4895,-251.56 4904.59,-247.05 4894.28,-244.59 4895,-251.56"/>
</g>
<!-- N44&#45;&gt;N2 -->
<g id="edge121" class="edge">
<title>N44&#45;&gt;N2</title>
<path fill="none" stroke="black" d="M4317.8,-287.52C4305.05,-278.76 4289.43,-268.04 4275.63,-258.58"/>
<polygon fill="black" stroke="black" points="4277.9,-255.89 4267.68,-253.12 4273.94,-261.66 4277.9,-255.89"/>
</g>
<!-- N49 -->
<g id="node28" class="node">
<title>N49</title>
<polygon fill="none" stroke="black" points="2347.9,-396 2032.65,-396 2032.65,-360 2347.9,-360 2347.9,-396"/>
<text text-anchor="middle" x="2190.28" y="-373.32" font-family="Times,serif" font-size="14.00">fyne.io/systray/internal/generated/notifier</text>
</g>
<!-- N10&#45;&gt;N30 -->
<g id="edge78" class="edge">
<title>N10&#45;&gt;N30</title>
<path fill="none" stroke="black" d="M388.42,-508.22C365.52,-500.46 343.12,-488 329.28,-468 320.17,-454.85 322.89,-446.67 329.28,-432 333.97,-421.22 342.06,-411.65 350.69,-403.71"/>
<polygon fill="black" stroke="black" points="352.88,-406.44 358.24,-397.3 348.35,-401.1 352.88,-406.44"/>
</g>
<!-- N10&#45;&gt;N13 -->
<g id="edge80" class="edge">
<title>N10&#45;&gt;N13</title>
<path fill="none" stroke="black" d="M497.16,-503.68C508.73,-494.6 521.02,-482.37 527.28,-468 542.95,-432.02 524.11,-317.45 513.95,-263.55"/>
<polygon fill="black" stroke="black" points="517.42,-263.07 512.09,-253.91 510.54,-264.39 517.42,-263.07"/>
</g>
<!-- N10&#45;&gt;N16 -->
<g id="edge83" class="edge">
<title>N10&#45;&gt;N16</title>
<path fill="none" stroke="black" d="M512.58,-503.56C529.29,-494.92 547.5,-483.08 560.28,-468 577.77,-447.36 601.45,-375.67 613.88,-335.26"/>
<polygon fill="black" stroke="black" points="617.21,-336.32 616.77,-325.73 610.51,-334.29 617.21,-336.32"/>
</g>
<!-- N10&#45;&gt;N29 -->
<g id="edge77" class="edge">
<title>N10&#45;&gt;N29</title>
<path fill="none" stroke="black" d="M388.33,-503.88C340.52,-493.89 279.99,-481.24 230.12,-470.82"/>
<polygon fill="black" stroke="black" points="230.99,-467.42 220.48,-468.8 229.56,-474.28 230.99,-467.42"/>
</g>
<!-- N10&#45;&gt;N55 -->
<g id="edge81" class="edge">
<title>N10&#45;&gt;N55</title>
<path fill="none" stroke="black" d="M388.45,-506.96C363.76,-499.13 338.43,-486.95 320.28,-468 267.1,-412.48 273.7,-312.79 280.95,-263.79"/>
<polygon fill="black" stroke="black" points="284.4,-264.4 282.54,-253.97 277.49,-263.29 284.4,-264.4"/>
</g>
<!-- N10&#45;&gt;N24 -->
<g id="edge82" class="edge">
<title>N10&#45;&gt;N24</title>
<path fill="none" stroke="black" d="M459.9,-503.7C455.22,-495.9 449.58,-486.51 444.38,-477.83"/>
<polygon fill="black" stroke="black" points="447.47,-476.18 439.32,-469.4 441.46,-479.78 447.47,-476.18"/>
</g>
<!-- N47 -->
<g id="node48" class="node">
<title>N47</title>
<polygon fill="none" stroke="black" points="832.53,-468 650.03,-468 650.03,-432 832.53,-432 832.53,-468"/>
<text text-anchor="middle" x="741.28" y="-445.32" font-family="Times,serif" font-size="14.00">gorm.io/gorm/callbacks</text>
</g>
<!-- N10&#45;&gt;N47 -->
<g id="edge79" class="edge">
<title>N10&#45;&gt;N47</title>
<path fill="none" stroke="black" d="M537.96,-503.52C575.94,-493.71 623.49,-481.43 663.05,-471.21"/>
<polygon fill="black" stroke="black" points="663.71,-474.65 672.52,-468.76 661.96,-467.87 663.71,-474.65"/>
</g>
<!-- N18&#45;&gt;N39 -->
<g id="edge60" class="edge">
<title>N18&#45;&gt;N39</title>
<path fill="none" stroke="black" d="M3142.53,-359.7C3127.86,-349.41 3108.95,-336.04 3092.28,-324 3004.95,-260.91 2945.82,-276.18 2897.28,-180 2890.07,-165.72 2888.28,-157.23 2897.28,-144 2953.37,-61.49 3258.63,-32.12 3400.16,-22.83"/>
<polygon fill="black" stroke="black" points="3400.03,-26.35 3409.78,-22.22 3399.58,-19.36 3400.03,-26.35"/>
</g>
<!-- N18&#45;&gt;N40 -->
<g id="edge62" class="edge">
<title>N18&#45;&gt;N40</title>
<path fill="none" stroke="black" d="M3152.66,-359.78C3132.94,-336.19 3097.18,-292.17 3070.28,-252 3056.92,-232.06 3043.49,-208.44 3033.77,-190.55"/>
<polygon fill="black" stroke="black" points="3036.9,-188.98 3029.08,-181.82 3030.73,-192.29 3036.9,-188.98"/>
</g>
<!-- N18&#45;&gt;N4 -->
<g id="edge64" class="edge">
<title>N18&#45;&gt;N4</title>
<path fill="none" stroke="black" d="M3207.49,-359.52C3228.8,-350.25 3255.18,-338.78 3277.84,-328.93"/>
<polygon fill="black" stroke="black" points="3279.14,-332.18 3286.91,-324.99 3276.35,-325.76 3279.14,-332.18"/>
</g>
<!-- N18&#45;&gt;N34 -->
<g id="edge63" class="edge">
<title>N18&#45;&gt;N34</title>
<path fill="none" stroke="black" d="M3095.73,-359.53C3059.81,-350.14 3015.85,-337.68 2977.28,-324 2921.6,-304.26 2859.64,-276.52 2818.57,-257.28"/>
<polygon fill="black" stroke="black" points="2820.24,-254.2 2809.7,-253.1 2817.26,-260.53 2820.24,-254.2"/>
</g>
<!-- N18&#45;&gt;N22 -->
<g id="edge65" class="edge">
<title>N18&#45;&gt;N22</title>
<path fill="none" stroke="black" d="M3168.44,-359.83C3170.82,-339.25 3178.1,-305.38 3200.28,-288 3255.73,-244.55 3449.42,-235.65 3568.62,-234.42"/>
<polygon fill="black" stroke="black" points="3568.43,-237.92 3578.4,-234.34 3568.37,-230.92 3568.43,-237.92"/>
</g>
<!-- N18&#45;&gt;N2 -->
<g id="edge61" class="edge">
<title>N18&#45;&gt;N2</title>
<path fill="none" stroke="black" d="M3295.76,-360.01C3512.76,-331.32 3947.26,-273.87 4142.4,-248.07"/>
<polygon fill="black" stroke="black" points="4142.82,-251.55 4152.27,-246.77 4141.9,-244.61 4142.82,-251.55"/>
</g>
<!-- N19 -->
<g id="node32" class="node">
<title>N19</title>
<polygon fill="none" stroke="black" points="2907.03,-468 2685.53,-468 2685.53,-432 2907.03,-432 2907.03,-468"/>
<text text-anchor="middle" x="2796.28" y="-445.32" font-family="Times,serif" font-size="14.00">github.com/fyne&#45;io/image/ico</text>
</g>
<!-- N23&#45;&gt;N5 -->
<g id="edge135" class="edge">
<title>N23&#45;&gt;N5</title>
<path fill="none" stroke="black" d="M1218.79,-503.59C1218.11,-479.61 1216.89,-436.14 1216.08,-407.42"/>
<polygon fill="black" stroke="black" points="1219.58,-407.52 1215.8,-397.62 1212.59,-407.72 1219.58,-407.52"/>
</g>
<!-- N23&#45;&gt;N48 -->
<g id="edge137" class="edge">
<title>N23&#45;&gt;N48</title>
<path fill="none" stroke="black" d="M1265.98,-503.52C1291.18,-494.08 1322.48,-482.37 1349.13,-472.39"/>
<polygon fill="black" stroke="black" points="1350.29,-475.7 1358.43,-468.91 1347.83,-469.14 1350.29,-475.7"/>
</g>
<!-- N38 -->
<g id="node54" class="node">
<title>N38</title>
<polygon fill="none" stroke="black" points="1197.9,-468 888.65,-468 888.65,-432 1197.9,-432 1197.9,-468"/>
<text text-anchor="middle" x="1043.28" y="-445.32" font-family="Times,serif" font-size="14.00">github.com/emersion/go&#45;imap/commands</text>
</g>
<!-- N23&#45;&gt;N38 -->
<g id="edge136" class="edge">
<title>N23&#45;&gt;N38</title>
<path fill="none" stroke="black" d="M1175.32,-503.52C1151.71,-494.13 1122.4,-482.47 1097.4,-472.53"/>
<polygon fill="black" stroke="black" points="1098.97,-469.38 1088.39,-468.94 1096.39,-475.89 1098.97,-469.38"/>
</g>
<!-- N56 -->
<g id="node34" class="node">
<title>N56</title>
<polygon fill="none" stroke="black" points="1948.03,-108 1690.53,-108 1690.53,-72 1948.03,-72 1948.03,-108"/>
<text text-anchor="middle" x="1819.28" y="-85.33" font-family="Times,serif" font-size="14.00">fyne.io/fyne/v2/internal/animation</text>
</g>
<!-- N56&#45;&gt;N39 -->
<g id="edge132" class="edge">
<title>N56&#45;&gt;N39</title>
<path fill="none" stroke="black" d="M1948.24,-73.17C1952.97,-72.75 1957.67,-72.35 1962.28,-72 2514.39,-29.57 3182.71,-21.08 3400.17,-19.4"/>
<polygon fill="black" stroke="black" points="3399.92,-22.91 3409.89,-19.33 3399.86,-15.91 3399.92,-22.91"/>
</g>
<!-- N35 -->
<g id="node35" class="node">
<title>N35</title>
<polygon fill="none" stroke="black" points="2668.9,-396 2365.65,-396 2365.65,-360 2668.9,-360 2668.9,-396"/>
<text text-anchor="middle" x="2517.28" y="-373.32" font-family="Times,serif" font-size="14.00">fyne.io/systray/internal/generated/menu</text>
</g>
<!-- N45 -->
<g id="node36" class="node">
<title>N45</title>
<polygon fill="none" stroke="black" points="2577.78,-468 2456.78,-468 2456.78,-432 2577.78,-432 2577.78,-468"/>
<text text-anchor="middle" x="2517.28" y="-445.32" font-family="Times,serif" font-size="14.00">fyne.io/systray</text>
</g>
<!-- N45&#45;&gt;N49 -->
<g id="edge47" class="edge">
<title>N45&#45;&gt;N49</title>
<path fill="none" stroke="black" d="M2456.54,-436C2407.79,-425.56 2338.56,-410.74 2282.91,-398.83"/>
<polygon fill="black" stroke="black" points="2283.96,-395.48 2273.45,-396.8 2282.5,-402.32 2283.96,-395.48"/>
</g>
<!-- N45&#45;&gt;N35 -->
<g id="edge46" class="edge">
<title>N45&#45;&gt;N35</title>
<path fill="none" stroke="black" d="M2517.28,-431.7C2517.28,-424.41 2517.28,-415.73 2517.28,-407.54"/>
<polygon fill="black" stroke="black" points="2520.78,-407.62 2517.28,-397.62 2513.78,-407.62 2520.78,-407.62"/>
</g>
<!-- N46&#45;&gt;N39 -->
<g id="edge129" class="edge">
<title>N46&#45;&gt;N39</title>
<path fill="none" stroke="black" d="M3915.36,-215.5C3916.38,-182.03 3913.33,-108.95 3871.28,-72 3824.02,-30.47 3645.85,-21.14 3544.3,-19.26"/>
<polygon fill="black" stroke="black" points="3544.48,-15.76 3534.43,-19.1 3544.37,-22.76 3544.48,-15.76"/>
</g>
<!-- N46&#45;&gt;N27 -->
<g id="edge130" class="edge">
<title>N46&#45;&gt;N27</title>
<path fill="none" stroke="black" d="M3806.19,-217.81C3801.49,-217.19 3796.84,-216.58 3792.28,-216 3681.45,-201.8 3555.16,-187.15 3464.13,-176.86"/>
<polygon fill="black" stroke="black" points="3464.76,-173.41 3454.43,-175.77 3463.97,-180.36 3464.76,-173.41"/>
</g>
<!-- N46&#45;&gt;N14 -->
<g id="edge131" class="edge">
<title>N46&#45;&gt;N14</title>
<path fill="none" stroke="black" d="M3835.35,-215.52C3790.59,-205.6 3734.42,-193.16 3687.99,-182.87"/>
<polygon fill="black" stroke="black" points="3689.02,-179.52 3678.5,-180.77 3687.5,-186.35 3689.02,-179.52"/>
</g>
<!-- N61 -->
<g id="node39" class="node">
<title>N61</title>
<polygon fill="none" stroke="black" points="4623.78,-828 4154.78,-828 4154.78,-792 4623.78,-792 4623.78,-828"/>
<text text-anchor="middle" x="4389.28" y="-805.33" font-family="Times,serif" font-size="14.00">github.com/DHBW&#45;SE&#45;2023/YAAC/internal/frontend/main/pages</text>
</g>
<!-- N61&#45;&gt;N30 -->
<g id="edge197" class="edge">
<title>N61&#45;&gt;N30</title>
<path fill="none" stroke="black" d="M4154.3,-807.2C3586.5,-802.41 2151.44,-787.48 1672.28,-756 1099.27,-718.36 954.68,-706.61 388.28,-612 209.32,-582.11 67.34,-638.86 6.28,-468 0.89,-452.93 -4.23,-444.07 6.28,-432 45.92,-386.44 220.04,-378.83 318.25,-378.27"/>
<polygon fill="black" stroke="black" points="318.05,-381.77 328.04,-378.24 318.02,-374.77 318.05,-381.77"/>
</g>
<!-- N61&#45;&gt;N39 -->
<g id="edge187" class="edge">
<title>N61&#45;&gt;N39</title>
<path fill="none" stroke="black" d="M4624.26,-803.48C4911.92,-790.2 5361.28,-745.38 5361.28,-595 5361.28,-595 5361.28,-595 5361.28,-161 5361.28,-132.88 5462.06,-141.51 5204.28,-72 5042.61,-28.41 3852.16,-20.55 3544.62,-19.24"/>
<polygon fill="black" stroke="black" points="3544.73,-15.75 3534.71,-19.2 3544.7,-22.75 3544.73,-15.75"/>
</g>
<!-- N61&#45;&gt;N28 -->
<g id="edge194" class="edge">
<title>N61&#45;&gt;N28</title>
<path fill="none" stroke="black" d="M4348.32,-791.52C4326.51,-782.21 4299.5,-770.68 4276.34,-760.79"/>
<polygon fill="black" stroke="black" points="4277.96,-757.68 4267.39,-756.98 4275.22,-764.12 4277.96,-757.68"/>
</g>
<!-- N61&#45;&gt;N17 -->
<g id="edge195" class="edge">
<title>N61&#45;&gt;N17</title>
<path fill="none" stroke="black" d="M4154.5,-808.57C3523.72,-806.84 1832.14,-798.28 1719.28,-756 1695.94,-747.26 1696.64,-734.37 1676.28,-720 1661.21,-709.36 1643.91,-698.81 1628.52,-689.96"/>
<polygon fill="black" stroke="black" points="1630.47,-687.04 1620.05,-685.15 1627.02,-693.13 1630.47,-687.04"/>
</g>
<!-- N61&#45;&gt;N57 -->
<g id="edge190" class="edge">
<title>N61&#45;&gt;N57</title>
<path fill="none" stroke="black" d="M4512.87,-791.65C4534.58,-783.74 4555.29,-772.36 4571.28,-756 4626.29,-699.69 4633.94,-600.37 4634.12,-551.62"/>
<polygon fill="black" stroke="black" points="4637.62,-551.86 4634.04,-541.89 4630.62,-551.92 4637.62,-551.86"/>
</g>
<!-- N61&#45;&gt;N9 -->
<g id="edge196" class="edge">
<title>N61&#45;&gt;N9</title>
<path fill="none" stroke="black" d="M4459.19,-791.6C4499.6,-781.44 4551.37,-768.24 4597.28,-756 4827.75,-694.55 4970.01,-801.95 5114.28,-612 5127.68,-594.35 5120.69,-569.33 5111.64,-550.31"/>
<polygon fill="black" stroke="black" points="5114.78,-548.77 5107.06,-541.52 5108.57,-552 5114.78,-548.77"/>
</g>
<!-- N61&#45;&gt;N15 -->
<g id="edge193" class="edge">
<title>N61&#45;&gt;N15</title>
<path fill="none" stroke="black" d="M4455.83,-791.55C4473.26,-783.63 4490.03,-772.26 4500.28,-756 4508.81,-742.47 4505.96,-734.96 4500.28,-720 4471.27,-643.68 4292.44,-469.1 4223.94,-404.04"/>
<polygon fill="black" stroke="black" points="4226.54,-401.69 4216.88,-397.36 4221.73,-406.77 4226.54,-401.69"/>
</g>
<!-- N61&#45;&gt;N20 -->
<g id="edge189" class="edge">
<title>N61&#45;&gt;N20</title>
<path fill="none" stroke="black" d="M4486.3,-791.56C4504.76,-783.72 4521.85,-772.39 4533.28,-756 4599.14,-661.58 4480.74,-530.41 4424.04,-476.09"/>
<polygon fill="black" stroke="black" points="4426.61,-473.7 4416.93,-469.39 4421.8,-478.8 4426.61,-473.7"/>
</g>
<!-- N61&#45;&gt;N53 -->
<g id="edge191" class="edge">
<title>N61&#45;&gt;N53</title>
<path fill="none" stroke="black" d="M4579.08,-791.54C4753.77,-772.47 4997.47,-737.33 5077.28,-684 5110.54,-661.78 5111.43,-646.73 5131.28,-612 5155.99,-568.75 5185.9,-547.31 5161.28,-504 5106.87,-408.31 4985.58,-354.22 4905.91,-327.81"/>
<polygon fill="black" stroke="black" points="4907.47,-324.63 4896.88,-324.88 4905.32,-331.29 4907.47,-324.63"/>
</g>
<!-- N61&#45;&gt;N2 -->
<g id="edge188" class="edge">
<title>N61&#45;&gt;N2</title>
<path fill="none" stroke="black" d="M4624.11,-798.84C4889.58,-780.78 5285.28,-731.04 5285.28,-595 5285.28,-595 5285.28,-595 5285.28,-521 5285.28,-346.86 5133.57,-348.48 4970.28,-288 4857.46,-246.21 4511.83,-237.25 4340.16,-235.41"/>
<polygon fill="black" stroke="black" points="4340.4,-231.92 4330.37,-235.32 4340.33,-238.92 4340.4,-231.92"/>
</g>
<!-- N61&#45;&gt;N14 -->
<g id="edge192" class="edge">
<title>N61&#45;&gt;N14</title>
<path fill="none" stroke="black" d="M4154.54,-798.49C4069.39,-790.98 3985.47,-778.09 3950.28,-756 3910.5,-731.02 3893.28,-713.97 3893.28,-667 3893.28,-667 3893.28,-667 3893.28,-593 3893.28,-384.55 3653.89,-443.38 3571.28,-252 3562.61,-231.92 3570.67,-208.18 3580.18,-190.27"/>
<polygon fill="black" stroke="black" points="3583.11,-192.19 3585.08,-181.78 3577.05,-188.7 3583.11,-192.19"/>
</g>
<!-- N4&#45;&gt;N39 -->
<g id="edge173" class="edge">
<title>N4&#45;&gt;N39</title>
<path fill="none" stroke="black" d="M3300.77,-287.72C3258,-258.62 3183.78,-197.73 3217.28,-144 3257.06,-80.19 3339.94,-48.05 3400.45,-32.49"/>
<polygon fill="black" stroke="black" points="3401.14,-35.92 3410.01,-30.13 3399.46,-29.13 3401.14,-35.92"/>
</g>
<!-- N4&#45;&gt;N40 -->
<g id="edge175" class="edge">
<title>N4&#45;&gt;N40</title>
<path fill="none" stroke="black" d="M3275.23,-287.5C3247.72,-277.92 3213.78,-265.31 3184.28,-252 3139.91,-231.99 3091.08,-204.99 3058.14,-186"/>
<polygon fill="black" stroke="black" points="3060.16,-183.12 3049.75,-181.13 3056.65,-189.18 3060.16,-183.12"/>
</g>
<!-- N4&#45;&gt;N22 -->
<g id="edge176" class="edge">
<title>N4&#45;&gt;N22</title>
<path fill="none" stroke="black" d="M3412.45,-287.52C3460.39,-277.56 3520.6,-265.05 3570.23,-254.74"/>
<polygon fill="black" stroke="black" points="3570.74,-258.21 3579.82,-252.75 3569.32,-251.36 3570.74,-258.21"/>
</g>
<!-- N4&#45;&gt;N2 -->
<g id="edge174" class="edge">
<title>N4&#45;&gt;N2</title>
<path fill="none" stroke="black" d="M3447.71,-296.2C3587.58,-285.84 3826.28,-268.02 4031.28,-252 4067.56,-249.16 4107.35,-245.97 4142.45,-243.11"/>
<polygon fill="black" stroke="black" points="4142.48,-246.62 4152.16,-242.32 4141.91,-239.65 4142.48,-246.62"/>
</g>
<!-- N34&#45;&gt;N39 -->
<g id="edge44" class="edge">
<title>N34&#45;&gt;N39</title>
<path fill="none" stroke="black" d="M2776.45,-215.7C2785.7,-181.54 2811.4,-105.84 2864.28,-72 2908.5,-43.7 3248.73,-27.45 3400.08,-21.56"/>
<polygon fill="black" stroke="black" points="3400.14,-25.06 3410,-21.17 3399.88,-18.06 3400.14,-25.06"/>
</g>
<!-- N34&#45;&gt;N40 -->
<g id="edge45" class="edge">
<title>N34&#45;&gt;N40</title>
<path fill="none" stroke="black" d="M2833.97,-215.52C2868.29,-205.79 2911.18,-193.64 2947.05,-183.47"/>
<polygon fill="black" stroke="black" points="2947.82,-186.89 2956.49,-180.79 2945.91,-180.15 2947.82,-186.89"/>
</g>
<!-- N60&#45;&gt;N39 -->
<g id="edge155" class="edge">
<title>N60&#45;&gt;N39</title>
<path fill="none" stroke="black" d="M4142.99,-864.53C4146.11,-864.35 4149.2,-864.17 4152.28,-864 4378.51,-851.31 4949.38,-873.85 5171.28,-828 5277.81,-805.99 5399.28,-847.78 5399.28,-739 5399.28,-739 5399.28,-739 5399.28,-161 5399.28,-94.6 5342.02,-93.75 5279.28,-72 5196.1,-43.16 3870.29,-24.16 3544.27,-19.91"/>
<polygon fill="black" stroke="black" points="3544.66,-16.41 3534.61,-19.78 3544.57,-23.41 3544.66,-16.41"/>
</g>
<!-- N60&#45;&gt;N28 -->
<g id="edge162" class="edge">
<title>N60&#45;&gt;N28</title>
<path fill="none" stroke="black" d="M3967.33,-863.59C4020.7,-837.81 4120.74,-789.49 4179.31,-761.2"/>
<polygon fill="black" stroke="black" points="4180.55,-764.49 4188.03,-756.99 4177.5,-758.19 4180.55,-764.49"/>
</g>
<!-- N60&#45;&gt;N17 -->
<g id="edge163" class="edge">
<title>N60&#45;&gt;N17</title>
<path fill="none" stroke="black" d="M3719.84,-877.79C3194.67,-868.61 1859.9,-837.47 1676.28,-756 1646.14,-742.63 1620.42,-714.36 1604.29,-693.25"/>
<polygon fill="black" stroke="black" points="1607.22,-691.33 1598.46,-685.36 1601.58,-695.48 1607.22,-691.33"/>
</g>
<!-- N60&#45;&gt;N15 -->
<g id="edge160" class="edge">
<title>N60&#45;&gt;N15</title>
<path fill="none" stroke="black" d="M3931.57,-863.74C3932.46,-833.9 3936.03,-770.96 3950.28,-720 3966.72,-661.2 4007.28,-656.06 4007.28,-595 4007.28,-595 4007.28,-595 4007.28,-521 4007.28,-459.52 4071.9,-421.45 4125.77,-400.4"/>
<polygon fill="black" stroke="black" points="4126.83,-403.74 4134.96,-396.95 4124.37,-397.19 4126.83,-403.74"/>
</g>
<!-- N60&#45;&gt;N20 -->
<g id="edge157" class="edge">
<title>N60&#45;&gt;N20</title>
<path fill="none" stroke="black" d="M4143,-864.7C4146.11,-864.47 4149.21,-864.23 4152.28,-864 4205.72,-859.94 4596.82,-867.29 4633.28,-828 4741.47,-711.41 4597.5,-612.59 4481.28,-504 4469.21,-492.73 4454.4,-482.53 4440.55,-474.15"/>
<polygon fill="black" stroke="black" points="4442.38,-471.17 4431.98,-469.15 4438.85,-477.22 4442.38,-471.17"/>
</g>
<!-- N60&#45;&gt;N61 -->
<g id="edge161" class="edge">
<title>N60&#45;&gt;N61</title>
<path fill="none" stroke="black" d="M4045.67,-863.52C4112.05,-853.37 4195.75,-840.58 4263.92,-830.16"/>
<polygon fill="black" stroke="black" points="4264.3,-833.64 4273.66,-828.67 4263.24,-826.72 4264.3,-833.64"/>
</g>
<!-- N60&#45;&gt;N22 -->
<g id="edge159" class="edge">
<title>N60&#45;&gt;N22</title>
<path fill="none" stroke="black" d="M3887.25,-863.72C3870.69,-855.23 3853.04,-843.43 3841.28,-828 3816.45,-795.41 3817.28,-779.97 3817.28,-739 3817.28,-739 3817.28,-739 3817.28,-449 3817.28,-365.69 3773.36,-353.03 3721.28,-288 3713.41,-278.18 3703.78,-268.43 3694.73,-260.02"/>
<polygon fill="black" stroke="black" points="3697.2,-257.53 3687.44,-253.42 3692.51,-262.73 3697.2,-257.53"/>
</g>
<!-- N60&#45;&gt;N43 -->
<g id="edge158" class="edge">
<title>N60&#45;&gt;N43</title>
<path fill="none" stroke="black" d="M4143,-864.69C4146.11,-864.46 4149.21,-864.23 4152.28,-864 4415.44,-844.54 5323.28,-930.88 5323.28,-667 5323.28,-667 5323.28,-667 5323.28,-521 5323.28,-396.13 5268.54,-359.66 5166.28,-288 5147.04,-274.52 5123.97,-264.05 5101.96,-256.12"/>
<polygon fill="black" stroke="black" points="5103.28,-252.88 5092.69,-252.93 5101,-259.5 5103.28,-252.88"/>
</g>
<!-- N60&#45;&gt;N2 -->
<g id="edge156" class="edge">
<title>N60&#45;&gt;N2</title>
<path fill="none" stroke="black" d="M3930.47,-863.82C3930.02,-853.45 3929.5,-839.97 3929.28,-828 3927.32,-724.46 3931.28,-698.56 3931.28,-595 3931.28,-595 3931.28,-595 3931.28,-449 3931.28,-340.6 4061.25,-282.85 4152.88,-255.62"/>
<polygon fill="black" stroke="black" points="4153.76,-259 4162.4,-252.86 4151.82,-252.28 4153.76,-259"/>
</g>
<!-- N22&#45;&gt;N39 -->
<g id="edge28" class="edge">
<title>N22&#45;&gt;N39</title>
<path fill="none" stroke="black" d="M3714.54,-215.58C3785.49,-187.9 3902.57,-130.97 3851.28,-72 3812.32,-27.22 3643.12,-19.13 3544.46,-18.33"/>
<polygon fill="black" stroke="black" points="3544.62,-14.83 3534.6,-18.27 3544.58,-21.83 3544.62,-14.83"/>
</g>
<!-- N22&#45;&gt;N58 -->
<g id="edge29" class="edge">
<title>N22&#45;&gt;N58</title>
<path fill="none" stroke="black" d="M3750.98,-221.44C3837.39,-209.79 3971.37,-191.72 4067.47,-178.75"/>
<polygon fill="black" stroke="black" points="4067.76,-182.25 4077.2,-177.44 4066.83,-175.31 4067.76,-182.25"/>
</g>
<!-- N22&#45;&gt;N14 -->
<g id="edge30" class="edge">
<title>N22&#45;&gt;N14</title>
<path fill="none" stroke="black" d="M3648.72,-215.7C3640.85,-207.47 3631.28,-197.48 3622.61,-188.42"/>
<polygon fill="black" stroke="black" points="3625.14,-186 3615.7,-181.2 3620.08,-190.84 3625.14,-186"/>
</g>
<!-- N25 -->
<g id="node44" class="node">
<title>N25</title>
<polygon fill="none" stroke="black" points="2026.15,-252 1766.4,-252 1766.4,-216 2026.15,-216 2026.15,-252"/>
<text text-anchor="middle" x="1896.28" y="-229.32" font-family="Times,serif" font-size="14.00">fyne.io/fyne/v2/internal/repository</text>
</g>
<!-- N25&#45;&gt;N39 -->
<g id="edge21" class="edge">
<title>N25&#45;&gt;N39</title>
<path fill="none" stroke="black" d="M1904.35,-215.63C1922.45,-177.5 1966.93,-88.52 1995.28,-72 2056.53,-36.3 3113.21,-22.74 3400.62,-19.7"/>
<polygon fill="black" stroke="black" points="3400.25,-23.2 3410.21,-19.6 3400.17,-16.2 3400.25,-23.2"/>
</g>
<!-- N25&#45;&gt;N14 -->
<g id="edge22" class="edge">
<title>N25&#45;&gt;N14</title>
<path fill="none" stroke="black" d="M2026.56,-230.09C2350.1,-222.63 3183.99,-201.85 3461.28,-180 3472.78,-179.09 3484.79,-177.93 3496.72,-176.63"/>
<polygon fill="black" stroke="black" points="3497.07,-180.11 3506.62,-175.52 3496.29,-173.16 3497.07,-180.11"/>
</g>
<!-- N25&#45;&gt;N36 -->
<g id="edge23" class="edge">
<title>N25&#45;&gt;N36</title>
<path fill="none" stroke="black" d="M1928.99,-215.71C1947.31,-205.75 1970.39,-192.71 1990.28,-180 2013.35,-165.25 2017.24,-158.8 2040.28,-144 2056.59,-133.52 2075.06,-122.78 2091.21,-113.73"/>
<polygon fill="black" stroke="black" points="2092.56,-116.98 2099.61,-109.07 2089.16,-110.86 2092.56,-116.98"/>
</g>
<!-- N43&#45;&gt;N39 -->
<g id="edge85" class="edge">
<title>N43&#45;&gt;N39</title>
<path fill="none" stroke="black" d="M5013.55,-215.55C4997.07,-180.77 4954.82,-103.48 4892.28,-72 4831.62,-41.47 3824.72,-24.25 3544.27,-20.03"/>
<polygon fill="black" stroke="black" points="3544.6,-16.53 3534.55,-19.88 3544.49,-23.53 3544.6,-16.53"/>
</g>
<!-- N53&#45;&gt;N39 -->
<g id="edge10" class="edge">
<title>N53&#45;&gt;N39</title>
<path fill="none" stroke="black" d="M4828.41,-287.66C4822.57,-242.86 4800.19,-123.17 4724.28,-72 4675.17,-38.9 3803.56,-23.76 3544.39,-19.98"/>
<polygon fill="black" stroke="black" points="3544.44,-16.48 3534.39,-19.83 3544.34,-23.48 3544.44,-16.48"/>
</g>
<!-- N53&#45;&gt;N22 -->
<g id="edge12" class="edge">
<title>N53&#45;&gt;N22</title>
<path fill="none" stroke="black" d="M4745.17,-301.01C4514.85,-290.16 3890.34,-260.37 3797.28,-252 3785.85,-250.97 3773.9,-249.71 3762.05,-248.33"/>
<polygon fill="black" stroke="black" points="3762.58,-244.87 3752.24,-247.16 3761.75,-251.82 3762.58,-244.87"/>
</g>
<!-- N53&#45;&gt;N2 -->
<g id="edge11" class="edge">
<title>N53&#45;&gt;N2</title>
<path fill="none" stroke="black" d="M4744.95,-294.86C4637.53,-282.09 4453.37,-260.21 4339.99,-246.73"/>
<polygon fill="black" stroke="black" points="4340.42,-243.26 4330.07,-245.55 4339.59,-250.21 4340.42,-243.26"/>
</g>
<!-- N42&#45;&gt;N9 -->
<g id="edge109" class="edge">
<title>N42&#45;&gt;N9</title>
<path fill="none" stroke="black" d="M4936.23,-575.52C4965.3,-565.92 5001.55,-553.95 5032.09,-543.86"/>
<polygon fill="black" stroke="black" points="5032.8,-547.32 5041.2,-540.86 5030.61,-540.67 5032.8,-547.32"/>
</g>
<!-- N42&#45;&gt;N3 -->
<g id="edge108" class="edge">
<title>N42&#45;&gt;N3</title>
<path fill="none" stroke="black" d="M4886.74,-575.7C4888.21,-568.32 4889.97,-559.52 4891.63,-551.25"/>
<polygon fill="black" stroke="black" points="4895.03,-552.08 4893.56,-541.59 4888.17,-550.71 4895.03,-552.08"/>
</g>
<!-- N47&#45;&gt;N30 -->
<g id="edge209" class="edge">
<title>N47&#45;&gt;N30</title>
<path fill="none" stroke="black" d="M652.61,-431.52C591.23,-419.41 510.74,-403.54 454.38,-392.43"/>
<polygon fill="black" stroke="black" points="455.06,-389 444.57,-390.49 453.71,-395.86 455.06,-389"/>
</g>
<!-- N47&#45;&gt;N13 -->
<g id="edge210" class="edge">
<title>N47&#45;&gt;N13</title>
<path fill="none" stroke="black" d="M744.32,-431.64C748.95,-399.05 753.77,-328.35 717.28,-288 701.23,-270.26 649.13,-257.02 600.96,-248.22"/>
<polygon fill="black" stroke="black" points="601.74,-244.8 591.28,-246.5 600.52,-251.69 601.74,-244.8"/>
</g>
<!-- N47&#45;&gt;N16 -->
<g id="edge211" class="edge">
<title>N47&#45;&gt;N16</title>
<path fill="none" stroke="black" d="M726.69,-431.59C705.97,-406.86 667.87,-361.41 643.87,-332.77"/>
<polygon fill="black" stroke="black" points="646.7,-330.69 637.59,-325.27 641.33,-335.18 646.7,-330.69"/>
</g>
<!-- N47&#45;&gt;N26 -->
<g id="edge212" class="edge">
<title>N47&#45;&gt;N26</title>
<path fill="none" stroke="black" d="M749.17,-431.75C753.39,-421.58 758.14,-408.33 760.28,-396 768.61,-348.06 771.32,-327.05 742.28,-288 703.32,-235.62 635.77,-202.92 583.23,-184.17"/>
<polygon fill="black" stroke="black" points="584.63,-180.95 574.03,-180.99 582.34,-187.57 584.63,-180.95"/>
</g>
<!-- N1 -->
<g id="node49" class="node">
<title>N1</title>
<polygon fill="none" stroke="black" points="1733.28,-1116 1477.28,-1116 1477.28,-1080 1733.28,-1080 1733.28,-1116"/>
<text text-anchor="middle" x="1605.28" y="-1093.33" font-family="Times,serif" font-size="14.00">github.com/DHBW&#45;SE&#45;2023/YAAC</text>
</g>
<!-- N32 -->
<g id="node61" class="node">
<title>N32</title>
<polygon fill="none" stroke="black" points="1768.9,-1044 1441.65,-1044 1441.65,-1008 1768.9,-1008 1768.9,-1044"/>
<text text-anchor="middle" x="1605.28" y="-1021.33" font-family="Times,serif" font-size="14.00">github.com/DHBW&#45;SE&#45;2023/YAAC/cmd/yaac</text>
</g>
<!-- N1&#45;&gt;N32 -->
<g id="edge66" class="edge">
<title>N1&#45;&gt;N32</title>
<path fill="none" stroke="black" d="M1605.28,-1079.7C1605.28,-1072.41 1605.28,-1063.73 1605.28,-1055.54"/>
<polygon fill="black" stroke="black" points="1608.78,-1055.62 1605.28,-1045.62 1601.78,-1055.62 1608.78,-1055.62"/>
</g>
<!-- N2&#45;&gt;N39 -->
<g id="edge67" class="edge">
<title>N2&#45;&gt;N39</title>
<path fill="none" stroke="black" d="M4268.92,-215.54C4280.6,-206.51 4292.95,-194.35 4299.28,-180 4305.73,-165.36 4306.89,-158.07 4299.28,-144 4271.49,-92.6 4244.62,-90.75 4189.28,-72 4071.42,-32.07 3702.21,-22.19 3544.68,-19.77"/>
<polygon fill="black" stroke="black" points="3544.82,-16.27 3534.77,-19.63 3544.71,-23.27 3544.82,-16.27"/>
</g>
<!-- N2&#45;&gt;N58 -->
<g id="edge70" class="edge">
<title>N2&#45;&gt;N58</title>
<path fill="none" stroke="black" d="M4227.19,-215.7C4220.63,-207.64 4212.69,-197.89 4205.44,-188.98"/>
<polygon fill="black" stroke="black" points="4208.19,-186.82 4199.16,-181.28 4202.76,-191.24 4208.19,-186.82"/>
</g>
<!-- N2&#45;&gt;N40 -->
<g id="edge68" class="edge">
<title>N2&#45;&gt;N40</title>
<path fill="none" stroke="black" d="M4153.72,-225.19C4116.06,-222.02 4071.53,-218.52 4031.28,-216 3669.85,-193.39 3578.65,-203.49 3217.28,-180 3193.72,-178.47 3168.62,-176.54 3144.47,-174.54"/>
<polygon fill="black" stroke="black" points="3144.85,-171.06 3134.59,-173.71 3144.26,-178.03 3144.85,-171.06"/>
</g>
<!-- N2&#45;&gt;N8 -->
<g id="edge69" class="edge">
<title>N2&#45;&gt;N8</title>
<path fill="none" stroke="black" d="M4314.21,-215.52C4355.31,-205.66 4406.82,-193.31 4449.57,-183.07"/>
<polygon fill="black" stroke="black" points="4450.14,-186.53 4459.05,-180.8 4448.51,-179.72 4450.14,-186.53"/>
</g>
<!-- N2&#45;&gt;N14 -->
<g id="edge71" class="edge">
<title>N2&#45;&gt;N14</title>
<path fill="none" stroke="black" d="M4153.89,-223.49C4035.48,-210.6 3824.53,-187.63 3699.41,-174.01"/>
<polygon fill="black" stroke="black" points="3700.15,-170.57 3689.83,-172.97 3699.39,-177.53 3700.15,-170.57"/>
</g>
<!-- N31&#45;&gt;N39 -->
<g id="edge177" class="edge">
<title>N31&#45;&gt;N39</title>
<path fill="none" stroke="black" d="M1748.68,-575.56C1714.94,-551.84 1662.28,-506.01 1662.28,-451 1662.28,-451 1662.28,-451 1662.28,-161 1662.28,-120.55 1650.21,-97.9 1681.28,-72 1748.29,-16.12 3073.98,-17.48 3400.22,-18.67"/>
<polygon fill="black" stroke="black" points="3399.87,-22.17 3409.88,-18.71 3399.9,-15.17 3399.87,-22.17"/>
</g>
<!-- N31&#45;&gt;N22 -->
<g id="edge184" class="edge">
<title>N31&#45;&gt;N22</title>
<path fill="none" stroke="black" d="M1852.43,-592.36C2207.44,-589.19 3684.19,-574 3717.28,-540 3791.84,-463.37 3719.02,-321.51 3682.92,-262.19"/>
<polygon fill="black" stroke="black" points="3685.91,-260.36 3677.66,-253.72 3679.96,-264.06 3685.91,-260.36"/>
</g>
<!-- N31&#45;&gt;N25 -->
<g id="edge181" class="edge">
<title>N31&#45;&gt;N25</title>
<path fill="none" stroke="black" d="M1777.1,-575.71C1780.03,-527.39 1792.87,-387.9 1846.28,-288 1851.63,-277.98 1859.38,-268.47 1867.19,-260.34"/>
<polygon fill="black" stroke="black" points="1869.5,-262.98 1874.17,-253.47 1864.59,-257.99 1869.5,-262.98"/>
</g>
<!-- N31&#45;&gt;N33 -->
<g id="edge178" class="edge">
<title>N31&#45;&gt;N33</title>
<path fill="none" stroke="black" d="M1852.5,-588.49C1998.12,-578.29 2324.73,-547.82 2587.28,-468 2623.42,-457.01 2629.29,-446.24 2664.28,-432 2692.5,-420.52 2724.25,-409.2 2751.41,-399.99"/>
<polygon fill="black" stroke="black" points="2752.17,-403.43 2760.53,-396.93 2749.94,-396.8 2752.17,-403.43"/>
</g>
<!-- N11 -->
<g id="node56" class="node">
<title>N11</title>
<polygon fill="none" stroke="black" points="3181.78,-540 2916.78,-540 2916.78,-504 3181.78,-504 3181.78,-540"/>
<text text-anchor="middle" x="3049.28" y="-517.33" font-family="Times,serif" font-size="14.00">fyne.io/fyne/v2/internal/driver/glfw</text>
</g>
<!-- N31&#45;&gt;N11 -->
<g id="edge180" class="edge">
<title>N31&#45;&gt;N11</title>
<path fill="none" stroke="black" d="M1852.57,-588.8C2059.6,-577.42 2634.53,-545.81 2905.05,-530.93"/>
<polygon fill="black" stroke="black" points="2905.21,-534.43 2915.01,-530.38 2904.83,-527.44 2905.21,-534.43"/>
</g>
<!-- N31&#45;&gt;N6 -->
<g id="edge179" class="edge">
<title>N31&#45;&gt;N6</title>
<path fill="none" stroke="black" d="M1787.51,-575.63C1817.61,-530.74 1905.13,-410.87 2012.28,-360 2076.12,-329.69 2261.35,-316.44 2385.15,-310.84"/>
<polygon fill="black" stroke="black" points="2385.21,-314.35 2395.05,-310.41 2384.91,-307.35 2385.21,-314.35"/>
</g>
<!-- N31&#45;&gt;N14 -->
<g id="edge182" class="edge">
<title>N31&#45;&gt;N14</title>
<path fill="none" stroke="black" d="M1852.57,-592.59C2107.74,-590.84 2930.06,-582.01 3191.28,-540 3305.02,-521.71 3348.88,-538.12 3440.28,-468 3499.6,-422.49 3503.58,-394.92 3527.28,-324 3542.57,-278.24 3516.24,-258.92 3538.28,-216 3543.86,-205.13 3552.68,-195.48 3561.86,-187.49"/>
<polygon fill="black" stroke="black" points="3563.93,-190.31 3569.5,-181.3 3559.53,-184.87 3563.93,-190.31"/>
</g>
<!-- N31&#45;&gt;N36 -->
<g id="edge183" class="edge">
<title>N31&#45;&gt;N36</title>
<path fill="none" stroke="black" d="M1759.79,-575.77C1737.43,-550.53 1700.28,-501.05 1700.28,-451 1700.28,-451 1700.28,-451 1700.28,-377 1700.28,-301.09 1703.09,-269.15 1757.28,-216 1820.36,-154.12 1914.81,-122.87 1993.26,-107.09"/>
<polygon fill="black" stroke="black" points="1993.59,-110.59 2002.74,-105.25 1992.25,-103.72 1993.59,-110.59"/>
</g>
<!-- N33&#45;&gt;N39 -->
<g id="edge125" class="edge">
<title>N33&#45;&gt;N39</title>
<path fill="none" stroke="black" d="M2774.52,-359.56C2733.86,-340.03 2674.47,-304.14 2648.28,-252 2593,-141.97 2720.99,-113.45 2823.28,-72 2926.18,-30.3 3253.27,-21.39 3399.92,-19.5"/>
<polygon fill="black" stroke="black" points="3399.96,-23 3409.92,-19.38 3399.88,-16 3399.96,-23"/>
</g>
<!-- N33&#45;&gt;N44 -->
<g id="edge127" class="edge">
<title>N33&#45;&gt;N44</title>
<path fill="none" stroke="black" d="M2907.6,-368.96C2945.53,-365.82 2990.01,-362.41 3030.28,-360 3463.83,-334.04 3978.7,-317.38 4214.16,-310.54"/>
<polygon fill="black" stroke="black" points="4214.1,-314.05 4223.99,-310.26 4213.89,-307.05 4214.1,-314.05"/>
</g>
<!-- N33&#45;&gt;N6 -->
<g id="edge126" class="edge">
<title>N33&#45;&gt;N6</title>
<path fill="none" stroke="black" d="M2738.1,-359.52C2693.86,-349.62 2638.36,-337.21 2592.43,-326.94"/>
<polygon fill="black" stroke="black" points="2593.27,-323.54 2582.75,-324.77 2591.74,-330.37 2593.27,-323.54"/>
</g>
<!-- N33&#45;&gt;N14 -->
<g id="edge128" class="edge">
<title>N33&#45;&gt;N14</title>
<path fill="none" stroke="black" d="M2879.94,-359.58C3023.27,-320.36 3370.68,-225.28 3523.75,-183.4"/>
<polygon fill="black" stroke="black" points="3524.24,-186.89 3532.97,-180.87 3522.4,-180.14 3524.24,-186.89"/>
</g>
<!-- N38&#45;&gt;N5 -->
<g id="edge25" class="edge">
<title>N38&#45;&gt;N5</title>
<path fill="none" stroke="black" d="M1086.24,-431.52C1109.21,-422.17 1137.69,-410.57 1162.06,-400.66"/>
<polygon fill="black" stroke="black" points="1163.22,-403.96 1171.17,-396.95 1160.58,-397.48 1163.22,-403.96"/>
</g>
<!-- N38&#45;&gt;N51 -->
<g id="edge26" class="edge">
<title>N38&#45;&gt;N51</title>
<path fill="none" stroke="black" d="M1048.89,-431.74C1056.09,-412.02 1070.34,-379.92 1092.28,-360 1106.81,-346.8 1125.14,-336.55 1143.17,-328.73"/>
<polygon fill="black" stroke="black" points="1144.4,-332 1152.33,-324.97 1141.75,-325.53 1144.4,-332"/>
</g>
<!-- N8&#45;&gt;N39 -->
<g id="edge39" class="edge">
<title>N8&#45;&gt;N39</title>
<path fill="none" stroke="black" d="M4504.62,-143.69C4488.6,-133.71 4468.47,-120.68 4451.28,-108 4431.22,-93.21 4431.45,-81.17 4408.28,-72 4328.81,-40.56 3749.72,-25.03 3544.3,-20.47"/>
<polygon fill="black" stroke="black" points="3544.64,-16.98 3534.57,-20.26 3544.49,-23.98 3544.64,-16.98"/>
</g>
<!-- N11&#45;&gt;N21 -->
<g id="edge95" class="edge">
<title>N11&#45;&gt;N21</title>
<path fill="none" stroke="black" d="M3092.99,-503.52C3116.46,-494.13 3145.6,-482.47 3170.46,-472.53"/>
<polygon fill="black" stroke="black" points="3171.43,-475.91 3179.42,-468.94 3168.83,-469.41 3171.43,-475.91"/>
</g>
<!-- N11&#45;&gt;N39 -->
<g id="edge86" class="edge">
<title>N11&#45;&gt;N39</title>
<path fill="none" stroke="black" d="M2916.69,-517.61C2676.2,-510.86 2186,-494.1 2112.28,-468 2050.61,-446.17 1978.16,-415.82 2012.28,-360 2158.65,-120.52 2303.5,-145.85 2574.28,-72 2729.25,-29.73 3215.02,-21.17 3399.88,-19.44"/>
<polygon fill="black" stroke="black" points="3399.87,-22.94 3409.84,-19.35 3399.81,-15.94 3399.87,-22.94"/>
</g>
<!-- N11&#45;&gt;N58 -->
<g id="edge100" class="edge">
<title>N11&#45;&gt;N58</title>
<path fill="none" stroke="black" d="M3182.07,-520.42C3279.24,-516.62 3413.13,-504.26 3525.28,-468 3618.07,-437.99 3627.33,-399.98 3716.28,-360 3724.71,-356.21 4022.86,-255.84 4031.28,-252 4073.14,-232.87 4118.4,-205.66 4148.74,-186.37"/>
<polygon fill="black" stroke="black" points="4150.24,-189.56 4156.77,-181.22 4146.47,-183.67 4150.24,-189.56"/>
</g>
<!-- N11&#45;&gt;N40 -->
<g id="edge93" class="edge">
<title>N11&#45;&gt;N40</title>
<path fill="none" stroke="black" d="M3046.06,-503.68C3041.73,-479.62 3034.12,-434.66 3030.28,-396 3022.99,-322.67 3020.51,-235.87 3019.68,-191.79"/>
<polygon fill="black" stroke="black" points="3023.18,-191.74 3019.51,-181.8 3016.18,-191.86 3023.18,-191.74"/>
</g>
<!-- N11&#45;&gt;N15 -->
<g id="edge105" class="edge">
<title>N11&#45;&gt;N15</title>
<path fill="none" stroke="black" d="M3182.1,-513.47C3309.87,-505.37 3508.29,-490.53 3679.28,-468 3768.82,-456.2 3790.29,-447.42 3879.28,-432 3952.76,-419.26 4035.9,-405.43 4098.74,-395.09"/>
<polygon fill="black" stroke="black" points="4099.04,-398.58 4108.34,-393.51 4097.9,-391.68 4099.04,-398.58"/>
</g>
<!-- N11&#45;&gt;N20 -->
<g id="edge88" class="edge">
<title>N11&#45;&gt;N20</title>
<path fill="none" stroke="black" d="M3181.91,-515.95C3391.92,-507.67 3813.87,-489.94 4171.28,-468 4209.37,-465.66 4251.05,-462.64 4288.08,-459.8"/>
<polygon fill="black" stroke="black" points="4288.2,-463.3 4297.9,-459.04 4287.66,-456.32 4288.2,-463.3"/>
</g>
<!-- N11&#45;&gt;N44 -->
<g id="edge101" class="edge">
<title>N11&#45;&gt;N44</title>
<path fill="none" stroke="black" d="M3182.04,-519.18C3330.98,-515.38 3562.09,-503.73 3641.28,-468 3662.48,-458.43 3658.56,-442.58 3679.28,-432 3770.87,-385.22 4048.5,-343.88 4214.36,-322.47"/>
<polygon fill="black" stroke="black" points="4214.63,-325.97 4224.11,-321.22 4213.74,-319.02 4214.63,-325.97"/>
</g>
<!-- N11&#45;&gt;N18 -->
<g id="edge97" class="edge">
<title>N11&#45;&gt;N18</title>
<path fill="none" stroke="black" d="M3048.83,-503.51C3049.21,-484.16 3052.51,-452.96 3068.28,-432 3077.8,-419.34 3091.26,-409.37 3105.19,-401.67"/>
<polygon fill="black" stroke="black" points="3106.71,-404.82 3114.02,-397.14 3103.52,-398.59 3106.71,-404.82"/>
</g>
<!-- N11&#45;&gt;N19 -->
<g id="edge107" class="edge">
<title>N11&#45;&gt;N19</title>
<path fill="none" stroke="black" d="M2986.09,-503.52C2950.79,-493.75 2906.62,-481.53 2869.78,-471.34"/>
<polygon fill="black" stroke="black" points="2871.13,-468.08 2860.56,-468.79 2869.26,-474.83 2871.13,-468.08"/>
</g>
<!-- N11&#45;&gt;N56 -->
<g id="edge91" class="edge">
<title>N11&#45;&gt;N56</title>
<path fill="none" stroke="black" d="M2916.55,-519.11C2610.93,-514.23 1880.28,-499.35 1837.28,-468 1742.32,-398.78 1730.46,-330.41 1757.28,-216 1765.74,-179.89 1786.26,-142.25 1801.39,-117.84"/>
<polygon fill="black" stroke="black" points="1804.27,-119.82 1806.68,-109.5 1798.36,-116.07 1804.27,-119.82"/>
</g>
<!-- N11&#45;&gt;N45 -->
<g id="edge106" class="edge">
<title>N11&#45;&gt;N45</title>
<path fill="none" stroke="black" d="M2916.69,-503.84C2837.36,-493.53 2734.53,-480.11 2643.28,-468 2625.87,-465.69 2607.11,-463.17 2589.52,-460.8"/>
<polygon fill="black" stroke="black" points="2590.03,-457.34 2579.65,-459.47 2589.1,-464.28 2590.03,-457.34"/>
</g>
<!-- N11&#45;&gt;N4 -->
<g id="edge96" class="edge">
<title>N11&#45;&gt;N4</title>
<path fill="none" stroke="black" d="M3182,-512.44C3260,-505.01 3349.23,-491.59 3380.28,-468 3420.24,-437.63 3437.63,-403.89 3413.28,-360 3406.42,-347.64 3395.35,-337.79 3383.43,-330.09"/>
<polygon fill="black" stroke="black" points="3385.45,-327.22 3375.06,-325.15 3381.89,-333.25 3385.45,-327.22"/>
</g>
<!-- N11&#45;&gt;N34 -->
<g id="edge94" class="edge">
<title>N11&#45;&gt;N34</title>
<path fill="none" stroke="black" d="M3007.52,-503.72C2990.7,-495.06 2972.26,-483.14 2959.28,-468 2925.65,-428.78 2952.17,-397.16 2916.28,-360 2888.63,-331.37 2865.03,-349.27 2834.28,-324 2813.66,-307.05 2796.86,-281.58 2785.98,-262.23"/>
<polygon fill="black" stroke="black" points="2789.11,-260.66 2781.28,-253.53 2782.95,-263.99 2789.11,-260.66"/>
</g>
<!-- N11&#45;&gt;N22 -->
<g id="edge104" class="edge">
<title>N11&#45;&gt;N22</title>
<path fill="none" stroke="black" d="M3182.22,-516.34C3292.25,-510.43 3438.46,-497.22 3489.28,-468 3573.44,-419.6 3630.18,-313.22 3653.42,-262.69"/>
<polygon fill="black" stroke="black" points="3656.59,-264.17 3657.5,-253.62 3650.21,-261.3 3656.59,-264.17"/>
</g>
<!-- N11&#45;&gt;N25 -->
<g id="edge98" class="edge">
<title>N11&#45;&gt;N25</title>
<path fill="none" stroke="black" d="M2916.38,-518.52C2618.42,-512.47 1919.55,-495.44 1876.28,-468 1833.31,-440.75 1827.31,-409.69 1838.28,-360 1846.17,-324.23 1865.37,-286.53 1879.53,-262"/>
<polygon fill="black" stroke="black" points="1882.4,-264.04 1884.47,-253.65 1876.37,-260.47 1882.4,-264.04"/>
</g>
<!-- N11&#45;&gt;N43 -->
<g id="edge89" class="edge">
<title>N11&#45;&gt;N43</title>
<path fill="none" stroke="black" d="M3182.24,-519.56C3491.06,-515.66 4249.71,-502.76 4502.28,-468 4714.09,-438.85 4797.62,-461.59 4961.28,-324 4981.5,-307 4997.72,-281.54 5008.17,-262.2"/>
<polygon fill="black" stroke="black" points="5011.18,-264.01 5012.68,-253.52 5004.97,-260.78 5011.18,-264.01"/>
</g>
<!-- N11&#45;&gt;N2 -->
<g id="edge87" class="edge">
<title>N11&#45;&gt;N2</title>
<path fill="none" stroke="black" d="M3182.01,-518.18C3321.55,-513.48 3530.72,-501 3603.28,-468 3624.45,-458.37 3621.3,-443.92 3641.28,-432 3731.81,-378 4024.87,-293.97 4165.12,-255.5"/>
<polygon fill="black" stroke="black" points="4165.99,-258.89 4174.71,-252.87 4164.14,-252.14 4165.99,-258.89"/>
</g>
<!-- N11&#45;&gt;N33 -->
<g id="edge90" class="edge">
<title>N11&#45;&gt;N33</title>
<path fill="none" stroke="black" d="M2916.76,-519.93C2822.5,-516.02 2707.31,-503.75 2676.28,-468 2665.79,-455.92 2667.18,-445.17 2676.28,-432 2685.91,-418.05 2699.72,-407.77 2714.95,-400.2"/>
<polygon fill="black" stroke="black" points="2716.09,-403.53 2723.76,-396.22 2713.21,-397.15 2716.09,-403.53"/>
</g>
<!-- N11&#45;&gt;N8 -->
<g id="edge99" class="edge">
<title>N11&#45;&gt;N8</title>
<path fill="none" stroke="black" d="M3182.26,-516.5C3411.28,-506.79 3894.02,-477.69 4293.28,-396 4414.95,-371.11 4482.93,-418.7 4563.28,-324 4594.4,-287.32 4584.71,-261.88 4570.28,-216 4567.28,-206.46 4561.88,-197.14 4556.12,-189.04"/>
<polygon fill="black" stroke="black" points="4559.1,-187.17 4550.24,-181.36 4553.54,-191.42 4559.1,-187.17"/>
</g>
<!-- N11&#45;&gt;N6 -->
<g id="edge92" class="edge">
<title>N11&#45;&gt;N6</title>
<path fill="none" stroke="black" d="M2916.47,-514.71C2652.03,-500.8 2080.06,-463.21 2023.28,-396 2012.95,-383.78 2012.6,-371.92 2023.28,-360 2047.06,-333.44 2251.14,-318.78 2385.43,-311.93"/>
<polygon fill="black" stroke="black" points="2385.26,-315.44 2395.08,-311.44 2384.91,-308.45 2385.26,-315.44"/>
</g>
<!-- N11&#45;&gt;N14 -->
<g id="edge102" class="edge">
<title>N11&#45;&gt;N14</title>
<path fill="none" stroke="black" d="M3181.86,-515.74C3270.39,-509.64 3376.69,-496.45 3411.28,-468 3503.01,-392.54 3423.1,-306.29 3500.28,-216 3511,-203.46 3525.46,-193.39 3539.97,-185.54"/>
<polygon fill="black" stroke="black" points="3541.31,-188.79 3548.64,-181.14 3538.14,-182.54 3541.31,-188.79"/>
</g>
<!-- N11&#45;&gt;N36 -->
<g id="edge103" class="edge">
<title>N11&#45;&gt;N36</title>
<path fill="none" stroke="black" d="M2916.36,-519.64C2624.03,-516 1948.38,-503.73 1914.28,-468 1881.14,-433.28 1894.66,-403.81 1914.28,-360 1943.74,-294.21 1993.95,-311.06 2035.28,-252 2064.9,-209.67 2049.47,-186.89 2078.28,-144 2085.11,-133.82 2094.18,-124.08 2102.99,-115.79"/>
<polygon fill="black" stroke="black" points="2105.06,-118.64 2110.14,-109.34 2100.37,-113.44 2105.06,-118.64"/>
</g>
<!-- N12&#45;&gt;N17 -->
<g id="edge186" class="edge">
<title>N12&#45;&gt;N17</title>
<path fill="none" stroke="black" d="M1095.62,-719.52C1191.89,-709.21 1313.65,-696.18 1411.79,-685.68"/>
<polygon fill="black" stroke="black" points="1411.96,-689.18 1421.53,-684.63 1411.21,-682.22 1411.96,-689.18"/>
</g>
<!-- N12&#45;&gt;N54 -->
<g id="edge185" class="edge">
<title>N12&#45;&gt;N54</title>
<path fill="none" stroke="black" d="M894.27,-719.59C837.87,-693.75 732.07,-645.29 670.36,-617.03"/>
<polygon fill="black" stroke="black" points="672.04,-613.94 661.49,-612.96 669.13,-620.31 672.04,-613.94"/>
</g>
<!-- N6&#45;&gt;N39 -->
<g id="edge170" class="edge">
<title>N6&#45;&gt;N39</title>
<path fill="none" stroke="black" d="M2505.65,-287.71C2512.79,-243.03 2538.57,-123.61 2615.28,-72 2679.62,-28.71 3205.68,-20.78 3400.27,-19.33"/>
<polygon fill="black" stroke="black" points="3400.01,-22.83 3409.98,-19.26 3399.96,-15.83 3400.01,-22.83"/>
</g>
<!-- N6&#45;&gt;N40 -->
<g id="edge171" class="edge">
<title>N6&#45;&gt;N40</title>
<path fill="none" stroke="black" d="M2524.91,-287.75C2552.03,-267.09 2600.77,-233.14 2648.28,-216 2727.3,-187.49 2820.99,-174.26 2894.45,-168.14"/>
<polygon fill="black" stroke="black" points="2894.4,-171.66 2904.09,-167.38 2893.85,-164.68 2894.4,-171.66"/>
</g>
<!-- N6&#45;&gt;N34 -->
<g id="edge172" class="edge">
<title>N6&#45;&gt;N34</title>
<path fill="none" stroke="black" d="M2570.46,-287.52C2608.08,-277.73 2655.16,-265.48 2694.38,-255.27"/>
<polygon fill="black" stroke="black" points="2695.22,-258.67 2704.02,-252.76 2693.46,-251.89 2695.22,-258.67"/>
</g>
<!-- N14&#45;&gt;N39 -->
<g id="edge138" class="edge">
<title>N14&#45;&gt;N39</title>
<path fill="none" stroke="black" d="M3571.26,-143.56C3557.73,-134.04 3541.64,-121.46 3529.28,-108 3512.08,-89.27 3496.8,-64.74 3486.4,-46.18"/>
<polygon fill="black" stroke="black" points="3489.59,-44.72 3481.73,-37.62 3483.45,-48.07 3489.59,-44.72"/>
</g>
<!-- N14&#45;&gt;N0 -->
<g id="edge139" class="edge">
<title>N14&#45;&gt;N0</title>
<path fill="none" stroke="black" d="M3621.02,-143.7C3632.3,-135.11 3646.11,-124.61 3658.42,-115.24"/>
<polygon fill="black" stroke="black" points="3660.44,-118.1 3666.27,-109.26 3656.2,-112.53 3660.44,-118.1"/>
</g>
<!-- N14&#45;&gt;N36 -->
<g id="edge140" class="edge">
<title>N14&#45;&gt;N36</title>
<path fill="none" stroke="black" d="M3508.11,-148.73C3492.52,-146.91 3476.45,-145.24 3461.28,-144 3029.18,-108.63 2515.98,-96.63 2273.5,-92.75"/>
<polygon fill="black" stroke="black" points="2273.73,-89.25 2263.67,-92.59 2273.62,-96.25 2273.73,-89.25"/>
</g>
<!-- N32&#45;&gt;N52 -->
<g id="edge76" class="edge">
<title>N32&#45;&gt;N52</title>
<path fill="none" stroke="black" d="M1605.28,-1007.7C1605.28,-1000.41 1605.28,-991.73 1605.28,-983.54"/>
<polygon fill="black" stroke="black" points="1608.78,-983.62 1605.28,-973.62 1601.78,-983.62 1608.78,-983.62"/>
</g>
<!-- N36&#45;&gt;N39 -->
<g id="edge1" class="edge">
<title>N36&#45;&gt;N39</title>
<path fill="none" stroke="black" d="M2262.24,-73.22C2266.98,-72.79 2271.67,-72.38 2276.28,-72 2701.62,-37.34 3214.05,-24.18 3400.24,-20.33"/>
<polygon fill="black" stroke="black" points="3400.06,-23.84 3409.99,-20.13 3399.92,-16.84 3400.06,-23.84"/>
</g>
</g>
</svg>
